<svg width="41" height="45" viewBox="0 0 41 45" fill="none" xmlns="http://www.w3.org/2000/svg">
<path d="M13.0792 40.2259C14.4618 40.2259 15.5827 38.9864 15.5827 37.4575C15.5827 35.9285 14.4618 34.689 13.0792 34.689C11.6965 34.689 10.5757 35.9285 10.5757 37.4575C10.5757 38.9864 11.6965 40.2259 13.0792 40.2259Z" fill="black"/>
<path d="M29.3522 40.2259C30.7348 40.2259 31.8557 38.9864 31.8557 37.4575C31.8557 35.9285 30.7348 34.689 29.3522 34.689C27.9695 34.689 26.8486 35.9285 26.8486 37.4575C26.8486 38.9864 27.9695 40.2259 29.3522 40.2259Z" fill="black"/>
<path d="M7.17816 12.5411H35.2533L31.1227 28.5284C30.9732 29.1068 30.6574 29.6157 30.2231 29.978C29.7888 30.3403 29.2595 30.5363 28.7155 30.5363H13.7159C13.1719 30.5363 12.6427 30.3403 12.2083 29.978C11.774 29.6157 11.4582 29.1068 11.3088 28.5284L5.64932 6.62384C5.57459 6.3346 5.41669 6.08016 5.19953 5.89901C4.98236 5.71786 4.71774 5.61987 4.44572 5.61987H1.81348" stroke="black" stroke-width="2.50351" stroke-linecap="round" stroke-linejoin="round"/>
</svg>
