<svg width="41" height="45" viewBox="0 0 41 45" fill="none" xmlns="http://www.w3.org/2000/svg">
<path d="M12.5172 39.9767C13.8998 39.9767 15.0207 38.7662 15.0207 37.2729C15.0207 35.7796 13.8998 34.5691 12.5172 34.5691C11.1345 34.5691 10.0137 35.7796 10.0137 37.2729C10.0137 38.7662 11.1345 39.9767 12.5172 39.9767Z" fill="black"/>
<path d="M28.7906 39.9767C30.1733 39.9767 31.2942 38.7662 31.2942 37.2729C31.2942 35.7796 30.1733 34.5691 28.7906 34.5691C27.408 34.5691 26.2871 35.7796 26.2871 37.2729C26.2871 38.7662 27.408 39.9767 28.7906 39.9767Z" fill="black"/>
<path d="M6.61664 12.9382H34.6918L30.5612 28.552C30.4117 29.117 30.0959 29.614 29.6616 29.9678C29.2273 30.3216 28.698 30.513 28.154 30.513H13.1544C12.6104 30.513 12.0811 30.3216 11.6468 29.9678C11.2125 29.614 10.8967 29.117 10.7472 28.552L5.0878 7.15922C5.01307 6.87674 4.85517 6.62824 4.638 6.45133C4.42084 6.27441 4.15622 6.17871 3.8842 6.17871H1.25195" stroke="black" stroke-width="2.50351" stroke-linecap="round" stroke-linejoin="round"/>
</svg>
