<svg width="41" height="42" viewBox="0 0 41 42" fill="none" xmlns="http://www.w3.org/2000/svg">
<path d="M12.5172 37.8391C13.8998 37.8391 15.0207 36.6707 15.0207 35.2295C15.0207 33.7882 13.8998 32.6199 12.5172 32.6199C11.1345 32.6199 10.0137 33.7882 10.0137 35.2295C10.0137 36.6707 11.1345 37.8391 12.5172 37.8391Z" fill="black"/>
<path d="M28.7906 37.8391C30.1733 37.8391 31.2942 36.6707 31.2942 35.2295C31.2942 33.7882 30.1733 32.6199 28.7906 32.6199C27.408 32.6199 26.2871 33.7882 26.2871 35.2295C26.2871 36.6707 27.408 37.8391 28.7906 37.8391Z" fill="black"/>
<path d="M6.61664 11.7428H34.6918L30.5612 26.8125C30.4117 27.3578 30.0959 27.8375 29.6616 28.179C29.2273 28.5205 28.698 28.7052 28.154 28.7052H13.1544C12.6104 28.7052 12.0811 28.5205 11.6468 28.179C11.2125 27.8375 10.8967 27.3578 10.7472 26.8125L5.0878 6.1651C5.01307 5.89246 4.85517 5.65262 4.638 5.48187C4.42084 5.31111 4.15622 5.21875 3.8842 5.21875H1.25195" stroke="black" stroke-width="2.50351" stroke-linecap="round" stroke-linejoin="round"/>
</svg>
