<svg width="41" height="32" viewBox="0 0 41 32" fill="none" xmlns="http://www.w3.org/2000/svg">
<path d="M12.5172 29.0124C13.8998 29.0124 15.0207 28.1359 15.0207 27.0547C15.0207 25.9734 13.8998 25.0969 12.5172 25.0969C11.1345 25.0969 10.0137 25.9734 10.0137 27.0547C10.0137 28.1359 11.1345 29.0124 12.5172 29.0124Z" fill="black"/>
<path d="M28.7906 29.0124C30.1733 29.0124 31.2942 28.1359 31.2942 27.0547C31.2942 25.9734 30.1733 25.0969 28.7906 25.0969C27.408 25.0969 26.2871 25.9734 26.2871 27.0547C26.2871 28.1359 27.408 29.0124 28.7906 29.0124Z" fill="black"/>
<path d="M6.61664 9.43488H34.6918L30.5612 20.7403C30.4117 21.1494 30.0959 21.5092 29.6616 21.7654C29.2273 22.0216 28.698 22.1602 28.154 22.1602H13.1544C12.6104 22.1602 12.0811 22.0216 11.6468 21.7654C11.2125 21.5092 10.8967 21.1494 10.7472 20.7403L5.0878 5.25048C5.01307 5.04595 4.85517 4.86602 4.638 4.73792C4.42084 4.60982 4.15622 4.54053 3.8842 4.54053H1.25195" stroke="black" stroke-width="2.50351" stroke-linecap="round" stroke-linejoin="round"/>
</svg>
