<svg width="41" height="40" viewBox="0 0 41 40" fill="none" xmlns="http://www.w3.org/2000/svg">
<path d="M12.5172 36.2496C13.8998 36.2496 15.0207 35.1303 15.0207 33.7496C15.0207 32.3689 13.8998 31.2496 12.5172 31.2496C11.1345 31.2496 10.0137 32.3689 10.0137 33.7496C10.0137 35.1303 11.1345 36.2496 12.5172 36.2496Z" fill="black"/>
<path d="M28.7906 36.2496C30.1733 36.2496 31.2942 35.1303 31.2942 33.7496C31.2942 32.3689 30.1733 31.2496 28.7906 31.2496C27.408 31.2496 26.2871 32.3689 26.2871 33.7496C26.2871 35.1303 27.408 36.2496 28.7906 36.2496Z" fill="black"/>
<path d="M6.61664 11.2493H34.6918L30.5612 25.6861C30.4117 26.2085 30.0959 26.668 29.6616 26.9952C29.2273 27.3223 28.698 27.4993 28.154 27.4993H13.1544C12.6104 27.4993 12.0811 27.3223 11.6468 26.9952C11.2125 26.668 10.8967 26.2085 10.7472 25.6861L5.0878 5.90593C5.01307 5.64474 4.85517 5.41497 4.638 5.25139C4.42084 5.08781 4.15622 4.99933 3.8842 4.99933H1.25195" stroke="black" stroke-width="2.50351" stroke-linecap="round" stroke-linejoin="round"/>
</svg>
