<svg width="41" height="51" viewBox="0 0 41 51" fill="none" xmlns="http://www.w3.org/2000/svg">
<path d="M12.5172 46.2278C13.8998 46.2278 15.0207 44.8035 15.0207 43.0465C15.0207 41.2896 13.8998 39.8653 12.5172 39.8653C11.1345 39.8653 10.0137 41.2896 10.0137 43.0465C10.0137 44.8035 11.1345 46.2278 12.5172 46.2278Z" fill="black"/>
<path d="M28.7906 46.2278C30.1733 46.2278 31.2942 44.8035 31.2942 43.0465C31.2942 41.2896 30.1733 39.8653 28.7906 39.8653C27.408 39.8653 26.2871 41.2896 26.2871 43.0465C26.2871 44.8035 27.408 46.2278 28.7906 46.2278Z" fill="black"/>
<path d="M6.61664 14.415H34.6918L30.5612 32.7857C30.4117 33.4505 30.0959 34.0352 29.6616 34.4515C29.2273 34.8678 28.698 35.093 28.154 35.093H13.1544C12.6104 35.093 12.0811 34.8678 11.6468 34.4515C11.2125 34.0352 10.8967 33.4505 10.7472 32.7857L5.0878 7.6155C5.01307 7.28314 4.85517 6.99076 4.638 6.7826C4.42084 6.57445 4.15622 6.46185 3.8842 6.46185H1.25195" stroke="black" stroke-width="2.50351" stroke-linecap="round" stroke-linejoin="round"/>
</svg>
