<svg width="41" height="41" viewBox="0 0 41 41" fill="none" xmlns="http://www.w3.org/2000/svg">
<path d="M13.0797 36.7136C14.4623 36.7136 15.5832 35.58 15.5832 34.1816C15.5832 32.7833 14.4623 31.6497 13.0797 31.6497C11.697 31.6497 10.5762 32.7833 10.5762 34.1816C10.5762 35.58 11.697 36.7136 13.0797 36.7136Z" fill="black"/>
<path d="M29.3521 36.7136C30.7348 36.7136 31.8557 35.58 31.8557 34.1816C31.8557 32.7833 30.7348 31.6497 29.3521 31.6497C27.9695 31.6497 26.8486 32.7833 26.8486 34.1816C26.8486 35.58 27.9695 36.7136 29.3521 36.7136Z" fill="black"/>
<path d="M7.17865 11.3939H35.2538L31.1232 26.0153C30.9737 26.5443 30.6579 27.0097 30.2236 27.3411C29.7893 27.6724 29.26 27.8516 28.716 27.8516H13.7164C13.1724 27.8516 12.6432 27.6724 12.2088 27.3411C11.7745 27.0097 11.4587 26.5443 11.3092 26.0153L5.64981 5.98216C5.57508 5.71763 5.41718 5.48492 5.20002 5.31925C4.98285 5.15358 4.71823 5.06396 4.44621 5.06396H1.81396" stroke="black" stroke-width="2.50351" stroke-linecap="round" stroke-linejoin="round"/>
</svg>
