<svg width="41" height="31" viewBox="0 0 41 31" fill="none" xmlns="http://www.w3.org/2000/svg">
<path d="M12.5172 28.0682C13.8998 28.0682 15.0207 27.2226 15.0207 26.1796C15.0207 25.1366 13.8998 24.2911 12.5172 24.2911C11.1345 24.2911 10.0137 25.1366 10.0137 26.1796C10.0137 27.2226 11.1345 28.0682 12.5172 28.0682Z" fill="black"/>
<path d="M28.7906 28.0682C30.1733 28.0682 31.2942 27.2226 31.2942 26.1796C31.2942 25.1366 30.1733 24.2911 28.7906 24.2911C27.408 24.2911 26.2871 25.1366 26.2871 26.1796C26.2871 27.2226 27.408 28.0682 28.7906 28.0682Z" fill="black"/>
<path d="M6.61664 9.18233H34.6918L30.5612 20.0882C30.4117 20.4828 30.0959 20.83 29.6616 21.0771C29.2273 21.3242 28.698 21.4579 28.154 21.4579H13.1544C12.6104 21.4579 12.0811 21.3242 11.6468 21.0771C11.2125 20.83 10.8967 20.4828 10.7472 20.0882L5.0878 5.1458C5.01307 4.9485 4.85517 4.77492 4.638 4.65135C4.42084 4.52778 4.15622 4.46094 3.8842 4.46094H1.25195" stroke="black" stroke-width="2.50351" stroke-linecap="round" stroke-linejoin="round"/>
</svg>
