<svg width="21" height="21" viewBox="0 0 21 21" fill="none" xmlns="http://www.w3.org/2000/svg">
<path d="M12.2728 17.0245V13.1486C12.2728 12.9773 12.2047 12.813 12.0836 12.6919C11.9625 12.5707 11.7982 12.5027 11.6268 12.5027H9.04299C8.87167 12.5027 8.70737 12.5707 8.58622 12.6919C8.46508 12.813 8.39703 12.9773 8.39703 13.1486V17.0245C8.39703 17.1958 8.32898 17.3601 8.20786 17.4812C8.08673 17.6024 7.92245 17.6704 7.75114 17.6704L3.87584 17.6709C3.791 17.671 3.707 17.6543 3.62862 17.6218C3.55024 17.5893 3.47902 17.5418 3.41902 17.4818C3.35903 17.4218 3.31144 17.3506 3.27898 17.2722C3.24651 17.1938 3.2298 17.1098 3.2298 17.025V9.55924C3.2298 9.46925 3.2486 9.38024 3.28501 9.29794C3.32141 9.21564 3.37461 9.14185 3.4412 9.0813L9.90038 3.20831C10.0193 3.1002 10.1742 3.04029 10.3349 3.04028C10.4956 3.04028 10.6506 3.10018 10.7695 3.20828L17.2295 9.0813C17.2961 9.14184 17.3493 9.21564 17.3858 9.29795C17.4222 9.38025 17.441 9.46926 17.441 9.55927V17.025C17.441 17.1098 17.4243 17.1938 17.3918 17.2722C17.3593 17.3506 17.3117 17.4218 17.2517 17.4818C17.1918 17.5418 17.1205 17.5893 17.0422 17.6218C16.9638 17.6543 16.8798 17.671 16.7949 17.671L12.9187 17.6704C12.7474 17.6704 12.5831 17.6024 12.462 17.4812C12.3408 17.3601 12.2728 17.1958 12.2728 17.0245V17.0245Z" stroke="black" stroke-width="1.29193" stroke-linecap="round" stroke-linejoin="round"/>
</svg>
