<svg width="21" height="21" viewBox="0 0 21 21" fill="none" xmlns="http://www.w3.org/2000/svg">
<path d="M12.2728 17.0242V13.1484C12.2728 12.9771 12.2047 12.8128 12.0836 12.6916C11.9625 12.5705 11.7982 12.5024 11.6268 12.5024H9.04299C8.87167 12.5024 8.70737 12.5705 8.58622 12.6916C8.46508 12.8128 8.39703 12.9771 8.39703 13.1484V17.0242C8.39703 17.1955 8.32898 17.3598 8.20786 17.481C8.08673 17.6021 7.92245 17.6702 7.75114 17.6702L3.87584 17.6707C3.791 17.6707 3.707 17.654 3.62862 17.6216C3.55024 17.5891 3.47902 17.5415 3.41902 17.4815C3.35903 17.4216 3.31144 17.3503 3.27898 17.272C3.24651 17.1936 3.2298 17.1096 3.2298 17.0247V9.559C3.2298 9.469 3.2486 9.38 3.28501 9.2977C3.32141 9.21539 3.37461 9.1416 3.4412 9.08106L9.90038 3.20807C10.0193 3.09995 10.1742 3.04004 10.3349 3.04004C10.4956 3.04003 10.6506 3.09993 10.7695 3.20804L17.2295 9.08106C17.2961 9.1416 17.3493 9.21539 17.3858 9.2977C17.4222 9.38001 17.441 9.46902 17.441 9.55902V17.0247C17.441 17.1096 17.4243 17.1936 17.3918 17.272C17.3593 17.3503 17.3117 17.4216 17.2517 17.4815C17.1918 17.5415 17.1205 17.5891 17.0422 17.6216C16.9638 17.654 16.8798 17.6707 16.7949 17.6707L12.9187 17.6702C12.7474 17.6702 12.5831 17.6021 12.462 17.481C12.3408 17.3598 12.2728 17.1955 12.2728 17.0242V17.0242Z" stroke="black" stroke-width="1.29193" stroke-linecap="round" stroke-linejoin="round"/>
</svg>
