<svg width="384" height="188" viewBox="0 0 384 188" fill="none" xmlns="http://www.w3.org/2000/svg">
<g filter="url(#filter0_d_1_1612)">
<path fill-rule="evenodd" clip-rule="evenodd" d="M20 39C20 26.2975 30.2975 16 43 16H341C353.703 16 364 26.2975 364 39V64C349.641 64 338 75.6406 338 90C338 104.359 349.641 116 364 116V141C364 153.703 353.703 164 341 164H43C30.2974 164 20 153.703 20 141V116C34.3594 116 46 104.359 46 90C46 75.6406 34.3594 64 20 64V39Z" fill="#2C199E"/>
</g>
<defs>
<filter id="filter0_d_1_1612" x="0" y="0" width="384" height="188" filterUnits="userSpaceOnUse" color-interpolation-filters="sRGB">
<feFlood flood-opacity="0" result="BackgroundImageFix"/>
<feColorMatrix in="SourceAlpha" type="matrix" values="0 0 0 0 0 0 0 0 0 0 0 0 0 0 0 0 0 0 127 0" result="hardAlpha"/>
<feOffset dy="4"/>
<feGaussianBlur stdDeviation="10"/>
<feColorMatrix type="matrix" values="0 0 0 0 0 0 0 0 0 0 0 0 0 0 0 0 0 0 0.25 0"/>
<feBlend mode="normal" in2="BackgroundImageFix" result="effect1_dropShadow_1_1612"/>
<feBlend mode="normal" in="SourceGraphic" in2="effect1_dropShadow_1_1612" result="shape"/>
</filter>
</defs>
</svg>
