<svg width="26" height="31" viewBox="0 0 26 31" fill="none" xmlns="http://www.w3.org/2000/svg">
<g filter="url(#filter0_d_1_281)">
<path fill-rule="evenodd" clip-rule="evenodd" d="M24.2777 1.55735V8.98189C24.2776 9.02595 24.2747 9.06985 24.2691 9.11333V9.08964C24.2417 9.34435 24.1192 9.57937 23.9262 9.74776L16.9827 15.7703V15.815L15.4681 17.1357H3.83842L16.9831 5.68578L22.5826 0.788622C22.7301 0.658604 22.912 0.573968 23.1065 0.544904C23.301 0.51584 23.4997 0.543584 23.6788 0.624793C23.8578 0.706002 24.0096 0.83722 24.1159 1.00266C24.2222 1.1681 24.2783 1.36072 24.2777 1.55735ZM1.68605 22.9776V26.9142C1.68571 27.11 1.7419 27.3018 1.84787 27.4665C1.95384 27.6312 2.10513 27.7619 2.28351 27.8427C2.46189 27.9236 2.65977 27.9513 2.85349 27.9224C3.04721 27.8936 3.22853 27.8095 3.37561 27.6801L8.76854 22.9776H1.68605Z" fill="#FEFEFE"/>
</g>
<defs>
<filter id="filter0_d_1_281" x="0.598527" y="0.533691" width="24.7668" height="29.5749" filterUnits="userSpaceOnUse" color-interpolation-filters="sRGB">
<feFlood flood-opacity="0" result="BackgroundImageFix"/>
<feColorMatrix in="SourceAlpha" type="matrix" values="0 0 0 0 0 0 0 0 0 0 0 0 0 0 0 0 0 0 127 0" result="hardAlpha"/>
<feOffset dy="1.08751"/>
<feGaussianBlur stdDeviation="0.543754"/>
<feColorMatrix type="matrix" values="0 0 0 0 0 0 0 0 0 0 0 0 0 0 0 0 0 0 0.25 0"/>
<feBlend mode="normal" in2="BackgroundImageFix" result="effect1_dropShadow_1_281"/>
<feBlend mode="normal" in="SourceGraphic" in2="effect1_dropShadow_1_281" result="shape"/>
</filter>
</defs>
</svg>
