<svg width="466" height="295" viewBox="0 0 466 295" fill="none" xmlns="http://www.w3.org/2000/svg">
<g clip-path="url(#clip0_1_1440)">
<g opacity="0.2">
<path opacity="0.2" d="M392.441 254.619C389.234 256.55 385.964 258.421 382.63 260.23C382.113 260.51 381.595 260.79 381.078 261.079C378.573 262.422 376.028 263.728 373.443 264.998C373.463 264.794 373.488 264.591 373.52 264.387C373.815 262.28 374.472 260.239 375.462 258.356C375.927 257.454 376.481 256.602 377.116 255.811C379.64 252.659 383.143 250.899 386.723 251.412C388.954 251.755 390.985 252.894 392.441 254.619Z" fill="#1731BA"/>
<path opacity="0.2" d="M398.319 249.796C398.255 250.25 398.175 250.695 398.077 251.137C396.225 252.327 394.346 253.488 392.44 254.619C389.234 256.55 385.964 258.421 382.63 260.23C382.112 260.51 381.595 260.79 381.078 261.079C380.455 260.622 379.886 260.097 379.381 259.513C378.432 258.417 377.671 257.172 377.129 255.828C375.995 252.893 375.634 249.717 376.079 246.603C376.525 243.489 377.763 240.542 379.674 238.043C382.218 234.892 385.701 233.132 389.28 233.645C392.86 234.158 395.728 236.834 397.263 240.567C398.429 243.495 398.794 246.681 398.319 249.796Z" fill="#1731BA"/>
<path opacity="0.2" d="M400.891 232.026C402.046 223.99 398.005 216.759 391.865 215.877C385.725 214.994 379.812 220.794 378.656 228.83C377.501 236.866 381.542 244.097 387.682 244.979C393.822 245.862 399.735 240.063 400.891 232.026Z" fill="#1731BA"/>
<path opacity="0.2" d="M464.982 83.4084C463.89 91.0953 461.14 98.453 456.923 104.972L425.367 100.196L453.886 109.192C452.341 111.142 450.665 112.985 448.868 114.706C454.901 125.152 457.248 137.321 455.532 149.261C453.817 161.2 448.139 172.217 439.41 180.542C444.512 189.346 447 199.421 446.582 209.588C433.167 225.2 416.799 239.206 398.09 251.154C396.229 252.333 394.346 253.488 392.44 254.619C389.234 256.55 385.963 258.421 382.63 260.23C381.531 260.018 380.45 259.777 379.381 259.497C378.053 259.162 376.751 258.771 375.474 258.339C366.727 255.354 358.896 250.165 352.737 243.273C346.578 236.382 342.298 228.019 340.311 218.993C338.324 209.966 338.696 200.579 341.392 191.738C344.087 182.897 349.015 174.9 355.701 168.518C355.158 167.582 354.645 166.63 354.161 165.663C354.017 165.383 353.881 165.103 353.737 164.815C349.817 156.642 348.037 147.609 348.562 138.56L348.626 137.623C348.664 137.118 348.711 136.609 348.762 136.104C348.838 135.392 348.927 134.675 349.029 133.958V133.89C349.859 128.105 351.633 122.495 354.28 117.285L392.754 136.66L357.673 111.517C359.837 108.311 362.339 105.347 365.138 102.677C361.48 96.2836 359.175 89.2067 358.364 81.8853C357.553 74.5639 358.255 67.154 360.425 60.1149C362.596 53.0758 366.189 46.5574 370.982 40.9638C375.774 35.3701 381.665 30.8204 388.288 27.5965C394.911 24.3727 402.126 22.5434 409.485 22.2221C416.844 21.9008 424.191 23.0943 431.07 25.7286C437.949 28.3629 444.213 32.3819 449.476 37.5366C454.738 42.6912 458.885 48.8716 461.661 55.6948L418.453 78.8065L463.989 62.9137C465.636 69.6178 465.973 76.5767 464.982 83.4084Z" fill="#3C83E6"/>
<path opacity="0.1" d="M446.57 209.57C433.154 225.183 416.786 239.188 398.077 251.137C396.225 252.327 394.346 253.488 392.441 254.619C389.234 256.55 385.964 258.421 382.63 260.23C381.532 260.018 380.45 259.776 379.381 259.496C378.054 259.161 376.751 258.771 375.475 258.339C366.727 255.354 358.896 250.165 352.737 243.273C346.578 236.382 342.299 228.019 340.311 218.992C338.324 209.966 338.696 200.579 341.392 191.738C344.088 182.897 349.016 174.9 355.701 168.517C355.158 167.581 354.645 166.63 354.161 165.663C354.017 165.383 353.881 165.103 353.737 164.814C349.818 156.642 348.037 147.608 348.563 138.56L348.626 137.622C348.664 137.118 348.711 136.609 348.762 136.104C348.838 135.391 348.927 134.675 349.029 133.958V133.89C349.36 132.745 353.737 133.708 360.405 136.011L361.813 136.511C363.289 137.041 364.863 137.627 366.517 138.267C370.126 139.658 374.113 141.3 378.321 143.115L378.596 143.234L379.182 143.488C407.472 155.755 444.687 175.435 439.351 180.516C444.471 189.317 446.976 199.396 446.57 209.57Z" fill="black"/>
</g>
<g opacity="0.2">
<path opacity="0.2" d="M135.264 278.422C133.482 277.806 131.714 277.172 129.958 276.522C125.869 275.018 121.844 273.427 117.882 271.75C118.686 271.099 119.597 270.593 120.576 270.257C124.109 269.044 127.99 270.202 131.15 272.993C132.855 274.524 134.252 276.366 135.264 278.422Z" fill="#1731BA"/>
<path opacity="0.2" d="M131.15 272.993C130.909 274.217 130.508 275.404 129.958 276.522C125.869 275.018 121.844 273.428 117.882 271.751C114.435 270.3 111.042 268.786 107.703 267.208C107.557 266.196 107.492 265.173 107.508 264.15C107.522 263.084 107.635 262.022 107.847 260.977C108.695 256.808 111.096 253.487 114.633 252.274C118.171 251.061 122.047 252.219 125.207 255.014C125.972 255.692 126.674 256.439 127.303 257.245C128.695 259.039 129.769 261.059 130.475 263.217C131.546 266.362 131.778 269.731 131.15 272.993Z" fill="#1731BA"/>
<path opacity="0.2" d="M118.202 263.787C124.304 261.858 127.159 253.676 124.579 245.513C121.999 237.349 114.96 232.294 108.858 234.223C102.756 236.152 99.9008 244.333 102.481 252.497C105.061 260.661 112.1 265.715 118.202 263.787Z" fill="#1731BA"/>
<path opacity="0.2" d="M111.384 244.958C117.464 243.038 120.31 234.888 117.741 226.754C115.173 218.621 108.162 213.583 102.082 215.503C96.0027 217.423 93.1563 225.573 95.7249 233.707C98.2934 241.841 105.304 246.878 111.384 244.958Z" fill="#1731BA"/>
<path opacity="0.2" d="M127.281 257.245C126.102 257.935 124.892 258.581 123.651 259.183C121.65 260.155 119.592 261.005 117.488 261.728C115.568 262.39 113.613 262.944 111.63 263.386C110.253 263.697 108.875 263.95 107.495 264.146C105.781 264.392 104.072 264.553 102.367 264.629C81.8723 254.45 63.4729 241.997 47.771 227.775C47.5462 227.173 47.3469 226.566 47.1306 225.951C43.1054 213.882 43.174 200.822 47.3257 188.796C36.826 181.746 28.9849 171.388 25.0495 159.369C23.0918 153.487 22.0894 147.33 22.0805 141.131H66.5013L22.5132 134.098C23.0018 130.054 23.9174 126.073 25.2446 122.222C14.7444 115.175 6.90301 104.818 2.96852 92.7992C-6.8971 63.0624 8.6139 30.8739 37.6127 20.8896C57.0259 14.2135 77.5588 19.193 91.9755 32.1294L63.07 74.4422L97.4851 37.8299C102.142 43.3895 105.7 49.783 107.97 56.6705C110.559 64.45 111.466 72.6903 110.634 80.8468L79.4038 91.3232L109.815 86.2631C109.308 88.8289 108.627 91.3571 107.775 93.8299C118.274 100.878 126.115 111.235 130.051 123.253C131.957 128.978 132.959 134.965 133.02 140.999V141.046C133.02 141.512 133.02 141.979 133.02 142.445C133.02 142.645 133.02 142.84 133.02 143.039C132.872 148.963 131.812 154.828 129.877 160.429C134.144 163.288 137.998 166.72 141.329 170.63C141.414 170.723 141.494 170.817 141.571 170.914C146.268 176.495 149.855 182.923 152.136 189.852C160.819 216.022 149.829 244.1 127.281 257.245Z" fill="#3C83E6"/>
<path opacity="0.1" d="M127.281 257.245C126.102 257.935 124.892 258.581 123.651 259.183C121.65 260.155 119.592 261.005 117.488 261.728C115.568 262.39 113.612 262.944 111.63 263.386C110.253 263.697 108.875 263.95 107.495 264.146C105.781 264.392 104.072 264.553 102.367 264.629C81.8723 254.45 63.4728 241.997 47.771 227.775C47.5462 227.173 47.3468 226.566 47.1305 225.951C43.1054 213.882 43.1739 200.822 47.3256 188.796C36.8259 181.746 28.9849 171.388 25.0495 159.369C23.5268 154.78 87.0256 151.077 115.948 154.627L116.623 154.712C125.402 155.844 130.793 157.681 129.856 160.4C134.123 163.258 137.976 166.691 141.308 170.6C141.393 170.694 141.473 170.787 141.55 170.884C146.247 176.465 149.833 182.894 152.115 189.823C160.818 216.022 149.829 244.1 127.281 257.245Z" fill="black"/>
</g>
<path opacity="0.1" d="M162.112 98.2574C162.343 97.929 162.47 97.539 162.477 97.1377C162.477 94.6988 157.51 92.7266 151.386 92.7266C145.261 92.7266 140.303 94.7158 140.303 97.1377C140.311 97.6 140.471 98.0468 140.757 98.4101C133.941 99.1693 129.347 100.599 129.347 102.227C129.347 104.662 139.527 106.634 152.06 106.634C164.594 106.634 174.773 104.662 174.773 102.227C174.769 100.48 169.611 98.9785 162.112 98.2574Z" fill="#3C83E6"/>
<path opacity="0.1" d="M338.099 8.78405C338.465 8.25958 338.667 7.63805 338.68 6.9984C338.68 3.13444 330.799 0 321.078 0C311.356 0 303.476 3.13444 303.476 6.9984C303.493 7.72297 303.748 8.42176 304.201 8.98764C293.377 10.1965 286.086 12.4614 286.086 15.0572C286.086 18.9211 302.203 22.0556 322.138 22.0556C342.073 22.0556 358.191 18.9211 358.191 15.0572C358.191 12.3045 350 9.92501 338.099 8.78405Z" fill="#3C83E6"/>
<path opacity="0.1" d="M196.858 8.78405C197.225 8.25958 197.427 7.63805 197.439 6.9984C197.439 3.13444 189.559 0 179.837 0C170.116 0 162.235 3.13444 162.235 6.9984C162.253 7.72297 162.508 8.42176 162.961 8.98764C152.136 10.1965 144.845 12.4614 144.845 15.0572C144.845 18.9211 160.984 22.0556 180.898 22.0556C200.811 22.0556 216.95 18.9211 216.95 15.0572C216.95 12.3045 208.76 9.92501 196.858 8.78405Z" fill="#3C83E6"/>
<path opacity="0.1" d="M152.234 45.32C153.226 44.7474 154.558 45.2945 155.237 46.2149C155.916 47.1353 156.111 48.3356 156.28 49.4511C156.658 51.9578 156.929 54.8378 155.241 56.7295C158.002 48.3441 165.955 41.9183 174.752 40.981" stroke="#3C83E6" stroke-width="1.27244" stroke-miterlimit="10"/>
<path opacity="0.1" d="M263.135 3.74501C263.771 3.376 264.632 3.74501 265.069 4.3176C265.458 4.94715 265.686 5.66208 265.735 6.40016C265.977 8.01191 266.159 9.86119 265.069 11.0658C266.001 8.37386 267.669 5.99764 269.885 4.20769C272.101 2.41775 274.775 1.28603 277.603 0.941406" stroke="#3C83E6" stroke-width="1.27244" stroke-miterlimit="10"/>
<path opacity="0.1" d="M336.088 82.2118C336.724 81.8428 337.585 82.2118 338.022 82.7844C338.411 83.4139 338.639 84.1289 338.688 84.867C338.93 86.4787 339.112 88.328 338.022 89.5326C338.954 86.8407 340.623 84.4644 342.838 82.6745C345.054 80.8845 347.728 79.7528 350.556 79.4082" stroke="#3C83E6" stroke-width="1.27244" stroke-miterlimit="10"/>
<path d="M232.084 27.5649C230.268 29.0834 228.987 31.0302 226.994 32.4002C224.593 34.0544 221.442 34.6821 218.511 35.5686C215.58 36.455 212.573 37.8462 211.394 40.2596C210.393 42.3252 210.97 44.7216 210.121 46.8339C209.209 49.0776 206.843 50.6512 205.032 52.4623C201.452 56.0336 199.861 60.9452 200.79 65.526C201.431 68.6943 203.182 71.6209 204.221 74.713C205.494 78.4963 205.672 82.4621 205.85 86.3854C206.181 93.7529 206.508 101.192 204.849 108.441C204.425 110.261 203.28 137.928 201.062 137.872C206.949 137.368 212.87 137.313 218.787 137.253L307.433 136.405C303.348 131.061 300.74 99.4788 299.875 93.1803C298.382 82.3221 301.995 71.4513 302.42 60.5211C302.479 59.1129 302.479 57.6666 301.898 56.3432C301.287 54.9563 300.066 53.7729 299.658 52.335C299.073 50.2779 300.248 48.1699 300.286 46.0577C300.362 41.8162 296.045 38.563 292.622 35.4201C289.322 32.396 286.578 28.9604 283.172 26.0126C279.766 23.0648 275.486 20.5665 270.617 20.1127C266.617 19.7437 262.643 20.7829 258.813 21.8093C254.245 23.0308 249.906 24.5747 245.058 24.4984C239.71 24.4051 236.414 24.8504 232.084 27.5649Z" fill="#2F2E41"/>
<g opacity="0.1">
<path opacity="0.1" d="M293.144 44.2721C293.267 44.7361 293.446 45.1834 293.678 45.604C293.621 44.6496 293.389 43.7138 292.995 42.8428C292.977 43.3239 293.027 43.8051 293.144 44.2721Z" fill="black"/>
<path opacity="0.1" d="M207.174 112.377L206.682 112.42C206.847 112.423 207.011 112.409 207.174 112.377Z" fill="black"/>
</g>
<path d="M299.226 265.222C298.685 265.642 298.039 265.904 297.359 265.982C286.514 268.208 275.571 270.109 264.514 270.711C254.758 271.245 244.973 270.766 235.214 270.287C225.454 269.807 215.703 269.324 206.177 267.352C210.124 259.404 212.609 250.811 213.514 241.984C213.915 238.109 214.013 234.209 213.807 230.32C213.776 229.852 213.719 229.386 213.637 228.924C213.184 226.133 212.064 222.091 213.082 220.072C214.388 217.476 219.406 217.392 221.857 216.908C226.022 216.089 230.209 215.407 234.412 214.834C251.094 212.565 267.945 212.047 284.754 211.543C287.01 211.475 289.699 211.627 290.874 213.557C291.532 214.639 291.498 215.988 291.464 217.256C291.387 220.001 291.414 222.747 291.544 225.493C292.134 237.667 294.74 249.66 299.255 260.981C299.815 262.368 300.328 264.183 299.226 265.222Z" fill="#FBBEBE"/>
<path d="M233.229 114.18C231.456 116.364 228.958 117.832 226.443 119.121C223.438 120.674 220.343 122.045 217.175 123.227C216.535 124.198 217.044 125.488 217.599 126.523C222.574 136.185 229.233 145.787 239.277 149.94C244.431 152.061 250.084 152.591 255.641 153.087C257.371 153.24 259.136 153.392 260.824 152.977C262.512 152.561 264.081 151.556 265.489 150.491C274.692 143.528 280.752 133.194 282.336 121.764C282.472 120.75 282.472 119.507 281.603 118.964C281.073 118.638 280.398 118.702 279.775 118.706C275.707 118.748 272.102 115.737 270.223 112.136C268.344 108.535 267.843 104.382 267.381 100.34C267.381 100.251 243.468 99.7465 241.309 99.7295C237.941 99.6998 236.83 100.094 236.503 103.547C236.16 107.356 235.736 111.075 233.229 114.18Z" fill="#FBBEBE"/>
<path opacity="0.1" d="M233.229 114.18C231.456 116.364 228.958 117.832 226.443 119.121C223.438 120.674 220.343 122.045 217.175 123.227C216.535 124.198 217.044 125.488 217.599 126.523C222.574 136.185 229.233 145.787 239.277 149.94C244.431 152.061 250.084 152.591 255.641 153.087C257.371 153.24 259.136 153.392 260.824 152.977C262.512 152.561 264.081 151.556 265.489 150.491C274.692 143.528 280.752 133.194 282.336 121.764C282.472 120.75 282.472 119.507 281.603 118.964C281.073 118.638 280.398 118.702 279.775 118.706C275.707 118.748 272.102 115.737 270.223 112.136C268.344 108.535 267.843 104.382 267.381 100.34C267.381 100.251 243.468 99.7465 241.309 99.7295C237.941 99.6998 236.83 100.094 236.503 103.547C236.16 107.356 235.736 111.075 233.229 114.18Z" fill="black"/>
<path d="M252.235 109.663C270.272 109.663 284.894 95.0406 284.894 77.0034C284.894 58.9663 270.272 44.3442 252.235 44.3442C234.198 44.3442 219.576 58.9663 219.576 77.0034C219.576 95.0406 234.198 109.663 252.235 109.663Z" fill="#FBBEBE"/>
<path d="M276.186 115.724C276.547 120.305 227.316 124.593 225.459 118.943C224.356 120.245 222.333 120.351 220.721 119.791C219.109 119.231 217.752 118.154 216.225 117.361C213.68 116.033 210.813 115.541 207.992 115.062C203.399 114.286 198.063 113.718 194.661 116.903C193.486 118.001 192.685 119.448 191.506 120.551C189.444 122.468 186.53 123.066 183.871 123.944C180.033 125.216 176.495 127.252 172.869 129.033C164.401 133.203 155.373 136.12 146.067 137.695C144.086 138.03 142.093 138.301 140.129 138.772C137.372 139.434 134.615 140.566 132.736 142.691C134.933 145.499 138.089 147.03 141.478 148.137L174.179 158.825C179.099 160.433 184.096 162.074 188.401 164.954C195.573 169.739 200.239 177.602 202.792 185.835C205.346 194.068 206.003 202.754 206.639 211.352C206.915 215.088 207.165 218.986 205.698 222.447C213.315 223.345 221.018 223.218 228.601 222.07C235.901 220.959 243.12 218.897 250.504 218.965C258.563 219.046 266.372 221.658 274.316 223.071C282.26 224.483 291.027 224.526 297.72 220.017C296.295 218.096 296.079 215.351 296.024 212.968L295.854 201.673C295.778 200.309 295.869 198.942 296.125 197.601C296.694 195.183 298.293 193.156 299.315 190.895C301.287 186.531 301.012 181.543 301.122 176.754C301.232 171.965 301.902 166.821 305.139 163.317C307.259 161.031 310.228 159.733 313.24 158.931C318.389 157.557 323.775 157.468 329.094 157.091C346.435 155.847 363.399 151.429 379.143 144.057C378.202 142.067 376.013 140.939 374.016 140.015C369.291 137.83 364.286 135.591 359.103 136.079C356.596 136.316 354.115 137.19 351.616 136.872C349.25 136.566 347.154 135.226 344.856 134.586C343.112 134.102 341.288 134.03 339.499 133.758C335.367 133.126 331.491 131.426 327.669 129.742L318.016 125.5C315.471 124.376 312.82 123.176 311.072 121.004C310.504 120.296 310.046 119.499 309.427 118.833C308.362 117.692 306.882 117.017 305.402 116.547C303.542 115.899 301.559 115.682 299.603 115.91C298.262 116.177 296.938 116.524 295.638 116.95C289.259 118.672 282.676 116.882 276.186 115.724Z" fill="#3C83E6"/>
<path d="M313.541 286.549C296.156 290.728 278.448 293.424 260.607 294.607H260.578H215.784H215.758C207.742 294.062 199.841 293.227 192.057 292.105C194.354 285.267 197.52 278.753 201.477 272.721C202.11 271.868 202.605 270.921 202.945 269.914C203.131 268.976 203.226 268.023 203.229 267.068C203.435 264.141 204.57 261.356 206.469 259.119C207.352 259.6 208.242 260.062 209.141 260.506C219.329 265.566 230.423 268.544 241.775 269.265C247.747 269.571 253.732 269.45 259.687 268.904C273.115 267.823 287.078 265.329 297.894 257.41C298.348 257.079 298.797 256.735 299.243 256.383C304.498 261.049 307.539 268.2 309.715 274.885C311.008 278.795 312.205 282.697 313.541 286.549Z" fill="#2F2E41"/>
<path opacity="0.1" d="M252.057 259.564C251.845 260.249 251.793 260.974 251.905 261.682C252.017 262.39 252.289 263.063 252.701 263.649C252.977 263.036 253.058 262.353 252.935 261.692C252.813 261.032 252.491 260.424 252.014 259.95L252.057 259.564Z" fill="black"/>
<path d="M233.5 122.455C235.146 121.556 236.923 120.759 238.798 120.733C241.614 120.708 244.134 122.43 246.22 124.33C248.149 126.072 249.895 128.008 251.429 130.107C252.192 131.146 252.922 132.287 253.036 133.572C253.151 134.857 252.447 136.304 251.191 136.609C250.398 136.743 249.584 136.578 248.905 136.147C246.004 134.552 243.854 130.9 240.562 131.256C238.306 131.498 236.779 133.598 235.545 135.498C234.446 137.194 233.335 138.938 232.843 140.897C232.351 142.857 232.588 145.139 233.954 146.615C235.014 147.772 236.563 148.311 238.009 148.913C241.208 150.237 244.137 152.138 246.649 154.521C247.866 155.683 249.024 157.065 249.194 158.762C249.363 160.459 248.078 162.325 246.398 162.206C245.641 162.088 244.927 161.777 244.324 161.303C241.287 159.296 238.187 157.193 234.624 156.455C230.998 155.704 227.253 156.455 223.596 157.015C219.587 157.614 215.557 158.041 211.508 158.296C210.306 158.433 209.09 158.354 207.916 158.062C203.912 156.824 202.745 151.73 203.212 148.048C203.708 144.112 206.605 143.217 209.634 141.262C218.15 135.689 224.47 127.375 233.5 122.455Z" fill="#FBBEBE"/>
<path d="M264.874 122.455C263.224 121.556 261.451 120.759 259.572 120.733C256.756 120.708 254.237 122.43 252.15 124.33C250.222 126.073 248.478 128.008 246.946 130.107C246.186 131.146 245.457 132.287 245.342 133.572C245.228 134.857 245.928 136.304 247.183 136.609C247.977 136.743 248.793 136.578 249.474 136.147C252.375 134.552 254.525 130.9 257.812 131.256C260.073 131.498 261.6 133.598 262.83 135.498C263.928 137.194 265.044 138.938 265.532 140.897C266.019 142.857 265.786 145.139 264.42 146.615C263.364 147.772 261.812 148.311 260.366 148.913C257.166 150.238 254.236 152.139 251.722 154.521C250.504 155.683 249.351 157.065 249.177 158.762C249.003 160.459 250.292 162.325 251.972 162.206C252.729 162.088 253.444 161.777 254.046 161.303C257.083 159.296 260.183 157.193 263.746 156.455C267.372 155.704 271.118 156.455 274.774 157.015C278.774 157.642 282.807 158.079 286.849 158.321C288.052 158.459 289.271 158.38 290.446 158.088C294.446 156.849 295.612 151.755 295.15 148.074C294.649 144.138 291.757 143.243 288.724 141.287C280.224 135.689 273.909 127.375 264.874 122.455Z" fill="#FBBEBE"/>
<path d="M229.653 65.2037C231.553 62.2007 233.81 58.9433 236.893 58.5955C241.198 58.1077 244.562 63.4901 248.846 64.1857C254.36 65.0849 259.78 58.0271 264.963 60.6059C267.508 61.8784 269.408 65.4073 272.174 65.3394C274.087 65.297 275.643 63.5029 276.911 61.7427C279.052 58.7749 280.945 55.6371 282.574 52.3606C277.31 46.325 269.654 44.9465 262.507 43.848L250.491 42.0029C247.599 41.5576 244.655 41.1165 241.779 41.7315C239.179 42.2871 236.753 43.6868 234.399 45.1586C231.591 46.923 224.988 49.7563 223.265 53.0392C222.065 55.3169 223.715 56.3772 225.263 58.6718C226.719 60.8491 228.183 63.0264 229.653 65.2037Z" fill="#2F2E41"/>
<path opacity="0.1" d="M211.453 138.92C206.241 139.961 200.918 140.34 195.611 140.049C193.529 139.938 191.438 139.722 189.364 139.917C186.861 140.155 184.456 140.982 182.017 141.584C169.382 144.693 156.178 141.656 143.28 139.951C141.003 139.65 138.674 139.391 136.418 139.832C134.352 140.235 132.443 141.202 130.615 142.241C127.653 143.926 124.818 145.824 122.132 147.921C119.32 150.118 116.483 152.917 116.288 156.476C116.118 159.538 117.984 162.359 120.245 164.441C126.353 170.095 135.421 171.796 143.598 170.265C146.707 169.684 149.74 168.683 152.883 168.335C156.102 167.979 159.355 168.335 162.592 168.182C169.166 167.89 175.46 165.603 181.844 164.013C191.812 161.531 202.123 160.722 212.357 161.621C212.268 161.659 212.171 161.678 212.074 161.674C211.977 161.671 211.882 161.647 211.796 161.603C211.709 161.558 211.634 161.496 211.575 161.419C211.515 161.342 211.474 161.253 211.453 161.158C210.702 159.089 210.664 156.836 210.677 154.635C210.711 149.295 210.961 144.239 211.453 138.92Z" fill="black"/>
<path d="M210.605 139.345C205.393 140.385 200.07 140.765 194.763 140.473C192.68 140.363 190.589 140.146 188.515 140.341C186.013 140.579 183.608 141.406 181.169 142.008C168.534 145.117 155.33 142.08 142.432 140.375C140.154 140.074 137.826 139.816 135.569 140.257C133.504 140.66 131.595 141.627 129.767 142.666C126.805 144.35 123.97 146.248 121.284 148.345C118.472 150.542 115.634 153.342 115.439 156.9C115.27 159.962 117.136 162.783 119.397 164.866C125.504 170.519 134.572 172.22 142.75 170.689C145.859 170.108 148.892 169.107 152.035 168.759C155.254 168.403 158.507 168.759 161.743 168.607C168.317 168.314 174.612 166.028 180.995 164.437C190.963 161.955 201.275 161.147 211.508 162.045C211.419 162.084 211.323 162.102 211.226 162.099C211.129 162.096 211.034 162.071 210.947 162.027C210.861 161.983 210.786 161.92 210.726 161.843C210.667 161.766 210.626 161.677 210.605 161.583C209.854 159.513 209.816 157.261 209.829 155.059C209.863 149.719 210.113 144.664 210.605 139.345Z" fill="#3C83E6"/>
<path opacity="0.1" d="M287.905 136.652C294.369 138.123 309.927 138.772 316.552 138.552C319.576 138.458 322.592 138.187 325.616 138.195C330.799 138.195 335.974 139.044 341.144 138.7C347.825 138.242 354.386 135.786 361.049 136.418C364.324 136.732 367.475 137.776 370.597 138.819C373.719 139.862 377.12 141.041 379.317 143.578C381.353 145.928 382.095 149.092 382.77 152.129C383.147 153.825 383.525 155.577 383.194 157.278C382.562 160.505 379.589 162.69 376.734 164.319C373.341 166.253 369.617 167.915 365.706 167.826C363.386 167.775 361.13 167.105 358.92 166.41C352.588 164.42 346.115 162.168 339.499 162.664C334.871 163.021 330.248 164.726 325.697 163.805C323.02 163.262 320.607 161.846 318.062 160.904C311.861 158.635 296.121 159.237 289.547 159.865C289.929 156.171 289.882 152.447 290.264 148.748C290.561 145.919 290.845 142.988 289.937 140.291C289.369 138.675 289.178 137.797 287.905 136.652Z" fill="black"/>
<path d="M288.33 137.5C294.794 138.971 310.351 139.62 316.976 139.4C320.001 139.307 323.016 139.035 326.04 139.044C331.223 139.044 336.398 139.892 341.568 139.548C348.249 139.09 354.81 136.634 361.473 137.266C364.748 137.58 367.899 138.624 371.021 139.667C374.143 140.71 377.544 141.89 379.741 144.426C381.777 146.776 382.52 149.94 383.194 152.977C383.571 154.673 383.949 156.425 383.618 158.126C382.986 161.354 380.013 163.538 377.158 165.167C373.765 167.101 370.041 168.763 366.131 168.674C363.811 168.623 361.554 167.953 359.344 167.258C353.012 165.268 346.539 163.016 339.923 163.513C335.295 163.869 330.672 165.574 326.121 164.653C323.445 164.111 321.031 162.694 318.486 161.752C312.285 159.483 296.545 160.085 289.971 160.713C290.353 157.019 290.306 153.295 290.688 149.596C290.985 146.767 291.269 143.836 290.361 141.139C289.793 139.523 289.602 138.645 288.33 137.5Z" fill="#3C83E6"/>
<path d="M220.937 72.9103C219.945 72.6516 219.563 71.3961 218.668 70.8914C217.773 70.3867 216.653 70.7854 216.008 71.5361C215.41 72.3306 215.085 73.2981 215.084 74.293C215.004 76.4385 215.589 78.5562 216.758 80.3569C217.927 82.1576 219.624 83.5534 221.616 84.3538C220.729 80.4928 220.386 76.5269 220.598 72.571L220.937 72.9103Z" fill="#FBBEBE"/>
<path d="M283.528 72.9103C284.521 72.6516 284.898 71.3961 285.793 70.8914C286.688 70.3867 287.808 70.7854 288.453 71.5361C289.054 72.3295 289.378 73.2978 289.377 74.293C289.457 76.4385 288.872 78.5562 287.703 80.3569C286.534 82.1576 284.838 83.5534 282.846 84.3538C283.732 80.4928 284.075 76.5269 283.863 72.571L283.528 72.9103Z" fill="#FBBEBE"/>
<g opacity="0.1">
<path opacity="0.1" d="M242.874 166.965C243.683 169.922 244.075 172.976 244.04 176.042C244.04 181.373 242.993 186.026 241.432 188.524C241.3 189.712 241.152 190.891 241.008 192.049C243.209 190.352 244.825 184.779 244.825 178.162C244.808 173.641 244.053 169.607 242.874 166.965Z" fill="black"/>
</g>
<g opacity="0.1">
<path opacity="0.1" d="M254.822 166.965C254.012 169.921 253.618 172.976 253.651 176.042C253.651 181.373 254.703 186.026 256.264 188.524C256.395 189.712 256.54 190.891 256.688 192.049C254.487 190.352 252.871 184.779 252.871 178.162C252.867 173.641 253.622 169.607 254.822 166.965Z" fill="black"/>
</g>
<path opacity="0.1" d="M276.878 59.6225C275.605 61.3827 274.053 63.1768 272.14 63.2192C269.37 63.2871 267.474 59.7667 264.93 58.4858C259.768 55.907 254.36 62.9648 248.812 62.0656C244.528 61.37 241.177 55.9876 236.86 56.4753C233.776 56.8231 231.52 60.0806 229.619 63.0835C228.149 60.9091 226.68 58.7318 225.213 56.5517C224.364 55.2792 223.444 54.3673 223.032 53.4257C222.21 55.4447 223.753 56.5135 225.213 58.6724C226.672 60.8313 228.148 63.0284 229.619 65.2043C231.52 62.2013 233.776 58.9439 236.86 58.5961C241.165 58.1083 244.528 63.4907 248.812 64.1863C254.326 65.0855 259.746 58.0277 264.93 60.6065C267.474 61.8789 269.375 65.4078 272.14 65.34C274.053 65.2976 275.61 63.5034 276.878 61.7432C279.018 58.7755 280.912 55.6376 282.54 52.3611C282.311 52.0981 282.073 51.8437 281.832 51.5977C280.369 54.3845 278.714 57.0659 276.878 59.6225Z" fill="black"/>
</g>
<defs>
<clipPath id="clip0_1_1440">
<rect width="465.538" height="294.62" fill="white"/>
</clipPath>
</defs>
</svg>
