<svg width="531" height="415" viewBox="0 0 531 415" fill="none" xmlns="http://www.w3.org/2000/svg">
<g clip-path="url(#clip0_1_1738)">
<path opacity="0.1" d="M186.016 406.893C237.103 406.893 278.517 399.048 278.517 389.37C278.517 379.693 237.103 371.847 186.016 371.847C134.929 371.847 93.5149 379.693 93.5149 389.37C93.5149 399.048 134.929 406.893 186.016 406.893Z" fill="#3C83E6"/>
<path opacity="0.1" d="M308.1 58.5154C274.105 57.3388 241.727 46.3606 210.809 34.3528C179.891 22.345 149.268 9.0451 116.086 2.68403C94.7444 -1.40786 70.3349 -1.99091 53.1427 9.43906C36.5913 20.4698 31.244 39.4585 28.3708 57.0919C26.2066 70.3604 24.9355 84.3274 30.8606 96.7502C34.9787 105.375 42.28 112.624 47.3332 120.887C64.9141 149.63 52.4861 185.075 33.4397 213.14C24.51 226.304 14.1358 238.879 7.23897 252.877C0.342122 266.876 -2.84629 282.97 3.18911 297.289C9.16673 311.472 23.4174 322.103 38.8552 329.589C70.2089 344.795 107.141 349.144 143.18 351.613C222.932 357.066 303.105 354.707 383.068 352.338C412.661 351.466 442.382 350.578 471.492 346.003C487.66 343.461 504.348 339.427 516.088 329.688C530.985 317.329 534.677 296.402 524.692 280.906C507.946 254.905 461.659 248.449 449.94 220.552C443.5 205.193 450.113 188.09 459.479 173.85C479.566 143.295 513.231 116.49 515.001 81.5697C516.219 57.5857 500.036 33.5649 475.012 22.2137C448.785 10.3163 412.409 11.8133 393.069 31.5058C373.135 51.7604 338.12 59.5607 308.1 58.5154Z" fill="#3C83E6"/>
<path d="M281.085 190.013L264.996 179.166L273.111 167.085L230.617 163.697L215.347 175.505L196.232 164.789L180.29 166.707L180.101 162.504C179.904 158.124 179.464 153.757 178.783 149.425C178.851 148.112 178.898 146.604 178.893 144.965C178.893 138.058 177.958 128.903 173.85 122.799L174.796 114.3L167.127 105.239C168.358 102.786 169.763 100.423 171.329 98.1688C171.592 97.7906 171.854 97.4229 172.138 97.0657C182.092 96.3461 189.945 88.1623 189.945 78.1558C189.945 77.6936 189.945 77.2314 189.892 76.7744C189.892 76.5905 189.855 76.4014 189.834 76.2176C190.806 76.7429 191.788 77.2681 192.771 77.7934C192.954 78.056 193.165 78.3187 193.396 78.6286L193.443 78.6864L193.737 79.0488L193.832 79.1591C193.937 79.2852 194.047 79.406 194.157 79.5321L194.231 79.6161C194.509 79.926 194.803 80.2412 195.119 80.5511C195.156 80.5816 195.191 80.615 195.224 80.6509L195.618 81.0186L195.728 81.1184C196.064 81.4178 196.421 81.7067 196.778 81.9798L196.894 82.0639L197.346 82.3738L197.493 82.4683C197.666 82.5734 197.845 82.6837 198.018 82.7835L198.081 82.8203C198.286 82.9306 198.496 83.0356 198.706 83.1354L198.811 83.1775C198.99 83.2545 199.165 83.328 199.337 83.3981L199.499 83.4559C199.683 83.5189 199.862 83.5767 200.051 83.6292L200.166 83.6607C200.398 83.7185 200.629 83.7658 200.865 83.8025H200.891C201.114 83.8385 201.338 83.8613 201.564 83.8708H201.716C201.917 83.8814 202.119 83.8814 202.32 83.8708H202.451C202.703 83.8563 202.954 83.8265 203.203 83.7815C204.378 83.627 205.506 83.2222 206.512 82.5944C206.768 82.4232 206.995 82.2122 207.184 81.9693C208.235 80.5931 207.079 79.0856 207.079 79.0856C206.669 78.1086 204.011 77.4205 204.011 77.4205C204.011 77.4205 195.607 73.9116 195.607 71.1172C195.607 68.3227 193.506 53.8251 171.817 50.5106C171.817 50.5106 157.709 49.7175 153.743 57.2709L153.659 58.1534C152.493 58.8835 151.526 60.349 150.376 60.7798C149.879 60.8865 149.399 61.0634 148.952 61.305V61.2052C148.819 61.3214 148.711 61.4623 148.632 61.6202C148.385 62.1119 148.237 62.6473 148.196 63.196C148.077 63.8664 147.845 64.5113 147.508 65.1028C147.414 65.2708 147.308 65.4323 147.193 65.586L147.103 65.7278C147.713 65.7754 148.325 65.6763 148.889 65.4389C148.8 66.1581 148.624 66.8637 148.364 67.54C148.698 67.5508 149.028 67.4655 149.315 67.2942C149.601 67.1228 149.833 66.8727 149.982 66.5735V66.5315L150.05 66.437C150.182 66.1938 150.291 65.9388 150.376 65.6753L150.318 65.7383C150.423 65.3969 150.518 65.0502 150.633 64.7141C150.686 64.5247 150.773 64.3467 150.89 64.1888C151.031 64.0475 151.202 63.941 151.391 63.8781C151.58 63.8151 151.781 63.7974 151.978 63.8264L151.762 68.3805H151.857C151.73 68.7118 151.576 69.0316 151.395 69.3365C150.649 70.5446 149.294 71.3693 148.795 72.693C148.579 73.3314 148.497 74.0071 148.553 74.6785C148.553 75.0725 148.6 75.4717 148.632 75.8656V75.8341C148.705 76.8847 148.726 77.8827 148.159 78.7284C147.77 79.3062 147.145 79.7422 146.93 80.3988C146.87 80.5817 146.844 80.7738 146.851 80.9661C146.893 81.5417 147.013 82.1089 147.208 82.6522C147.211 82.6418 147.211 82.6311 147.208 82.6207C147.339 83.0203 147.37 83.446 147.298 83.8603C147.061 84.9109 145.785 85.7881 145.848 86.7913C145.844 86.9233 145.864 87.0549 145.906 87.1801C146.151 87.6701 146.576 88.0464 147.093 88.2306C147.903 88.6911 148.833 88.8962 149.761 88.8189C150.109 88.756 150.446 88.6409 150.759 88.4775C150.391 89.3232 150.013 90.1584 149.63 90.9515C149.572 91.0776 149.509 91.2037 149.446 91.3297C149.446 91.3297 146.2 89.1603 144.356 93.5831C143.818 94.5023 143.433 95.5029 143.216 96.5457C143.124 96.9628 142.994 97.3707 142.828 97.7643C142.009 99.15 140.784 100.25 139.319 100.916C135.558 102.639 120.367 121.586 120.099 126.492C119.967 128.407 119.644 130.304 119.132 132.154C117.937 136.511 117.629 141.065 118.229 145.543C118.417 146.991 118.728 148.419 119.159 149.814C120.771 154.715 121.848 163.86 121.848 163.86L123.592 179.733C123.527 181.924 123.622 184.117 123.876 186.294C122.095 188.327 114.946 196.8 117.677 199.106C119.778 200.923 123.455 200.624 125.52 200.251C123.781 204.553 121.044 212.033 120.682 217.17C120.157 224.77 121.58 234.84 123.834 238.706C126.087 242.572 133.598 252.489 133.598 252.489C133.598 252.489 133.247 266.094 135.931 271.037C138.615 275.979 139.697 286.233 139.697 286.233C139.697 286.233 142.202 294.889 140.947 298.072C139.692 301.256 143.274 303.903 139.513 306.02C135.752 308.137 130.941 355.847 130.941 355.847C130.941 355.847 129.002 387.117 130.941 388.709C131.044 388.784 131.155 388.849 131.271 388.903V399.408C131.271 399.408 129.927 401.615 135.395 402.061C139.14 402.36 149.756 403.038 156.054 403.432L160.934 403.737C160.934 403.737 172.49 406.037 177.595 403.737C182.701 401.436 191.752 401.488 190.407 395.411C190.229 394.584 189.99 393.771 189.692 392.979C188.216 389.208 185.711 388.777 181.094 387.726C180.826 387.669 180.568 387.616 180.332 387.574C175.468 386.728 173.871 388.992 171.145 386.045C168.776 383.498 161.233 380.646 158.665 379.742C158.728 379.553 158.806 379.369 158.869 379.175C158.142 379.051 157.466 378.721 156.921 378.224L163.881 378.665L168.025 378.923C168.025 378.923 177.848 380.882 182.207 378.923C186.567 376.963 194.236 377.016 193.091 371.853C192.94 371.149 192.738 370.457 192.487 369.783C191.232 366.579 189.099 366.227 185.175 365.339C184.949 365.292 184.739 365.245 184.529 365.208C180.395 364.488 179.04 366.411 176.723 363.91C174.738 361.778 168.471 359.388 166.218 358.574C166.218 357.407 164.642 355.748 163.649 354.082C162.483 352.139 164.637 345.337 164.637 345.337L165.866 317.114C166.334 316.905 166.829 316.764 167.337 316.693C167.337 316.693 172.894 311.388 171.639 305.736C171.383 304.027 171.25 302.301 171.24 300.573C173.068 298.876 175.584 296.371 176.298 294.826C177.464 292.31 176.298 280.119 176.298 280.119V233.5L185.595 234.441L194.031 235.307L196.6 235.57L205.036 236.421L224.424 238.38L241.894 235.071L249.453 233.642L264.996 230.701V192.671L281.085 190.013ZM153.123 63.9944L152.041 63.8789C152.398 63.8946 152.776 63.9629 153.123 63.9944Z" fill="url(#paint0_linear_1_1738)"/>
<path d="M243.376 214.706C238.123 222.223 219.239 218.241 219.239 218.241L204.605 204.547L202.635 202.693L205.939 195.675C205.939 195.675 206.99 195.964 208.791 196.479C218.252 199.226 247.809 208.387 243.376 214.706Z" fill="#EFB7B9"/>
<path opacity="0.1" d="M208.781 196.479C208.135 198.727 206.365 202.094 204.605 204.547L202.635 202.693L205.939 195.675C205.939 195.675 207 195.964 208.781 196.479Z" fill="black"/>
<path d="M158.591 117.341C158.591 117.341 145.102 123.324 145.764 138.016C146.24 147.481 147.271 156.91 148.852 166.254C148.852 166.254 146.094 188.363 157.577 194.063C169.059 199.762 179.686 204.447 179.686 204.447C179.686 204.447 197.65 206.38 199.883 207.179C202.115 207.977 209.091 195.77 207.804 193.868C206.517 191.967 190.028 187.98 187.927 184.807C185.826 181.635 180.967 179.675 180.967 179.675C180.967 179.675 175.951 176.639 175.61 173.897C175.268 171.155 176.592 169.112 176.928 167.909C177.264 166.706 178.115 155.092 178.115 155.092C178.115 155.092 183.778 113.753 158.591 117.341Z" fill="#DCE6F2"/>
<path opacity="0.1" d="M167.494 165.651C167.494 165.651 148.989 168.75 150.78 175.226C150.78 175.226 157.498 168.235 167.494 165.651Z" fill="black"/>
<path opacity="0.1" d="M167.636 168.272C167.636 168.272 157.462 176.576 159.452 177.002C161.443 177.427 167.636 168.272 167.636 168.272Z" fill="black"/>
<path opacity="0.1" d="M172.527 171.166C172.527 171.166 169.801 176.749 171.476 176.371C173.152 175.993 172.527 171.166 172.527 171.166Z" fill="black"/>
<path opacity="0.1" d="M209.464 197.072L208.34 196.752C208.661 195.701 208.75 194.851 208.487 194.457C207.2 192.555 190.723 188.574 188.627 185.396C186.531 182.218 181.667 180.264 181.667 180.264C181.667 180.264 176.65 177.228 176.309 174.486C175.968 171.744 177.291 169.7 177.627 168.498C177.964 167.295 178.815 155.676 178.815 155.676C178.815 155.676 184.461 114.342 159.274 117.929C159.274 117.929 145.785 123.917 146.442 138.609C146.918 148.075 147.951 157.504 149.536 166.848C149.536 166.848 146.778 188.957 158.261 194.656C169.743 200.355 180.369 205.041 180.369 205.041C180.369 205.041 198.329 206.969 200.566 207.772C201.412 208.077 202.94 206.506 204.437 204.347L205.288 205.141L219.923 218.829C219.923 218.829 238.806 222.816 244.059 215.299C248.497 208.975 218.946 199.814 209.464 197.072Z" fill="black"/>
<path d="M150.827 62.1977C150.313 62.2982 149.821 62.4885 149.372 62.7598C148.847 63.1957 148.847 63.9416 148.716 64.593C148.562 65.499 148.202 66.3578 147.665 67.1038C148.263 67.1476 148.863 67.0486 149.414 66.8149C149.325 67.5338 149.148 68.2393 148.889 68.916C149.216 68.9243 149.539 68.838 149.819 68.6675C150.098 68.497 150.323 68.2495 150.465 67.9547C150.743 67.3628 150.963 66.7454 151.122 66.111C151.171 65.9213 151.257 65.7429 151.374 65.5857C151.857 65.0132 152.755 65.2706 153.501 65.3441C154.122 65.3964 154.745 65.2818 155.307 65.0121C155.868 64.7425 156.348 64.3275 156.695 63.8103C157.488 62.6074 157.535 59.5293 155.644 59.2037C153.669 58.878 152.44 61.5989 150.827 62.1977Z" fill="#965D7B"/>
<g opacity="0.1">
<path opacity="0.1" d="M149.32 63.4058C149.367 63.1484 149.398 62.8806 149.456 62.6232C148.957 63.0591 148.931 63.7998 148.8 64.4564C148.733 64.8352 148.63 65.2065 148.49 65.5647C148.903 64.9055 149.185 64.1723 149.32 63.4058Z" fill="black"/>
<path opacity="0.1" d="M149.488 67.7447C149.749 67.0688 149.926 66.363 150.013 65.6436C149.487 65.8649 148.918 65.9637 148.348 65.9325C148.182 66.3019 147.98 66.6538 147.744 66.983C148.34 67.0291 148.938 66.9318 149.488 66.6994C149.401 67.4188 149.224 68.1246 148.963 68.8005C149.29 68.8081 149.612 68.7216 149.892 68.5512C150.171 68.3808 150.395 68.1336 150.538 67.8392C150.669 67.6004 150.775 67.3487 150.854 67.0881C150.699 67.3035 150.493 67.4765 150.255 67.5913C150.016 67.7061 149.752 67.7588 149.488 67.7447Z" fill="black"/>
<path opacity="0.1" d="M154.1 64.1728C153.354 64.0992 152.451 63.8419 151.968 64.4144C151.853 64.5729 151.767 64.7508 151.715 64.9397C151.668 65.0763 151.626 65.2181 151.589 65.3599C152.088 64.966 152.897 65.1761 153.575 65.2443C154.195 65.295 154.818 65.1797 155.38 64.9101C155.941 64.6406 156.42 64.2266 156.769 63.7105C156.928 63.4555 157.046 63.1773 157.12 62.8859C156.761 63.3311 156.297 63.6813 155.771 63.9056C155.244 64.13 154.67 64.2217 154.1 64.1728Z" fill="black"/>
</g>
<path d="M166.639 105.58L174.649 115.214L173.604 124.937L163.923 109.782L166.639 105.58Z" fill="#DCE6F2"/>
<path opacity="0.1" d="M174.644 115.214L173.662 124.359L173.599 124.937L164.863 111.258L163.923 109.782L164.196 109.357L166.634 105.58L167.175 106.232L174.644 115.214Z" fill="black"/>
<path d="M178.803 92.5377C176.093 93.3151 173.503 95.9835 171.25 99.2244C169.727 101.461 168.365 103.802 167.174 106.232C166.433 107.713 165.782 109.136 165.241 110.376L164.863 111.258C163.949 113.417 163.439 114.862 163.439 114.862C163.439 114.862 142.691 99.2612 145.974 98.2106C147.077 97.8587 148.527 95.495 149.961 92.5167L150.139 92.1385C151.048 90.2265 151.941 88.0939 152.734 86.0873C154.357 81.9639 155.56 78.3815 155.56 78.3815C155.56 78.3815 187.077 90.1739 178.803 92.5377Z" fill="#EFB7B9"/>
<path d="M191.216 77.5043C191.216 77.5043 196.006 86.1713 202.441 84.9894C208.876 83.8076 206.228 80.3355 206.228 80.3355L191.216 77.5043Z" fill="#1731BA"/>
<path d="M181.935 377.515C177.69 379.453 168.094 377.515 168.094 377.515L164.049 377.262C158.796 376.926 150.003 376.359 146.894 376.107C142.355 375.734 143.469 373.874 143.469 373.874V362.639L165.488 357.06C165.488 357.06 174.192 360.039 176.577 362.639C178.841 365.118 180.164 363.211 184.204 363.926C184.403 363.963 184.614 364.005 184.834 364.057C188.669 364.934 190.749 365.281 191.978 368.459C192.225 369.127 192.423 369.811 192.571 370.507C193.706 375.624 186.174 375.587 181.935 377.515Z" fill="#A36468"/>
<path opacity="0.1" d="M191.978 368.459C191.189 368.952 190.359 369.377 189.499 369.73C186.61 371.048 183.862 372.656 180.942 373.901C178.021 375.146 174.875 376.033 171.713 375.797C170.058 375.676 168.367 375.272 166.786 375.744C165.808 376.122 164.887 376.633 164.049 377.263C158.796 376.926 150.003 376.359 146.894 376.107C142.355 375.734 143.469 373.874 143.469 373.874V372.561C143.632 372.561 143.816 372.514 144.026 372.498C145.113 372.481 146.195 372.642 147.23 372.976C149.509 373.596 151.779 374.205 154.058 374.815C154.246 374.107 154.575 373.445 155.027 372.869C155.478 372.293 156.042 371.815 156.685 371.463C157.986 370.773 159.446 370.438 160.918 370.492C164.454 370.539 167.8 372.215 171.329 372.383C172.316 372.473 173.31 372.307 174.213 371.899C174.696 371.658 175.122 371.306 175.595 371.038C176.351 370.672 177.151 370.402 177.974 370.234C180.289 369.658 182.562 368.925 184.776 368.039C185.407 367.792 186.142 367.345 186.058 366.673C185.948 365.78 184.545 365.675 184.178 364.856C184.113 364.708 184.083 364.547 184.09 364.386C184.097 364.225 184.142 364.067 184.22 363.926C184.419 363.963 184.629 364.005 184.85 364.057C188.669 364.934 190.749 365.281 191.978 368.459Z" fill="black"/>
<path d="M177.448 402.098C172.458 404.377 161.165 402.098 161.165 402.098L156.411 401.819C150.255 401.425 139.886 400.769 136.224 400.459C130.882 400.018 132.196 397.832 132.196 397.832V384.59L158.107 378.024C158.107 378.024 168.35 381.528 171.155 384.59C173.818 387.505 175.357 385.263 180.132 386.103C180.369 386.145 180.615 386.198 180.873 386.255C185.385 387.306 187.833 387.7 189.277 391.44C189.57 392.225 189.803 393.031 189.976 393.851C191.278 399.87 182.438 399.823 177.448 402.098Z" fill="#A36468"/>
<path opacity="0.1" d="M189.267 391.44C188.339 392.019 187.363 392.52 186.351 392.937C182.953 394.486 179.717 396.377 176.282 397.843C172.847 399.308 169.143 400.348 165.419 400.075C163.476 399.933 161.485 399.445 159.641 400.012C158.486 400.462 157.399 401.07 156.411 401.819C150.255 401.425 139.886 400.769 136.224 400.459C130.882 400.017 132.196 397.832 132.196 397.832V396.288C132.413 396.252 132.632 396.228 132.852 396.214C134.132 396.191 135.406 396.381 136.624 396.776L144.655 398.941C144.879 398.106 145.27 397.325 145.806 396.647C146.342 395.969 147.01 395.407 147.77 394.996C149.301 394.18 151.021 393.784 152.755 393.851C156.915 393.908 160.849 395.878 165.004 396.078C166.161 396.183 167.326 395.99 168.387 395.516C168.96 395.227 169.438 394.812 170.015 394.502C170.904 394.067 171.845 393.749 172.815 393.557C175.524 392.873 178.184 392.01 180.778 390.972C181.519 390.678 182.386 390.153 182.286 389.365C182.154 388.314 180.505 388.188 180.069 387.222C179.996 387.047 179.962 386.859 179.971 386.669C179.98 386.48 180.032 386.296 180.122 386.129C180.358 386.171 180.605 386.224 180.862 386.281C185.374 387.29 187.822 387.7 189.267 391.44Z" fill="black"/>
<path d="M166.155 311.23L164.752 344.233C164.752 344.233 162.651 350.972 163.791 352.9C164.931 354.828 166.854 356.75 166.155 357.89C165.456 359.03 157.052 371.353 154.336 366.625C151.621 361.898 148.942 341.412 148.942 341.412L151.447 316.11L166.155 311.23Z" fill="#1731BA"/>
<path d="M172.238 229.004L176.136 234.215V279.535C176.136 279.535 177.275 291.617 176.136 294.112C174.996 296.607 169.218 301.597 169.218 301.597L164.359 276.646L165.409 250.251L172.238 229.004Z" fill="#1731BA"/>
<path opacity="0.1" d="M166.155 311.23L164.752 344.233C164.752 344.233 162.651 350.972 163.791 352.9C164.931 354.828 166.854 356.75 166.155 357.89C165.456 359.03 157.052 371.353 154.336 366.625C151.621 361.898 148.942 341.412 148.942 341.412L151.447 316.11L166.155 311.23Z" fill="black"/>
<path opacity="0.1" d="M172.238 229.004L176.136 234.215V279.535C176.136 279.535 177.275 291.617 176.136 294.112C174.996 296.607 169.218 301.597 169.218 301.597L164.359 276.646L165.409 250.251L172.238 229.004Z" fill="black"/>
<path d="M176.135 209.674V234.188L171.76 253.272C171.76 253.272 170.357 299.322 171.581 304.922C172.805 310.521 167.379 315.779 167.379 315.779C167.379 315.779 164.227 316.131 164.227 318.579C164.227 321.027 158.975 328.034 158.975 328.034L159.148 341.691C159.148 341.691 161.428 367.256 157.924 372.157C154.421 377.058 159.148 377.762 159.148 377.762C154.772 392.117 133.762 388.792 131.865 387.217C129.969 385.641 131.865 354.65 131.865 354.65C131.865 354.65 136.561 307.375 140.238 305.274C143.915 303.173 140.417 300.546 141.641 297.395C142.865 294.243 140.417 285.665 140.417 285.665C140.417 285.665 139.366 275.506 136.74 270.606C134.113 265.705 134.46 252.221 134.46 252.221C134.46 252.221 127.106 242.414 124.921 238.564C122.736 234.714 121.328 224.733 121.854 217.201C122.211 212.111 124.884 204.699 126.581 200.434C127.395 198.391 127.984 197.067 127.984 197.067L128.483 197.199L157.173 204.71L176.135 209.674Z" fill="#1731BA"/>
<path opacity="0.1" d="M178.804 92.5376C176.093 93.315 173.504 95.9834 171.25 99.2243H170.662C167.359 99.2267 164.114 98.357 161.255 96.7033C158.395 95.0496 156.023 92.6704 154.378 89.8062C153.691 88.6193 153.138 87.3597 152.729 86.0504C154.352 81.927 155.555 78.3447 155.555 78.3447C155.555 78.3447 187.077 90.1738 178.804 92.5376Z" fill="black"/>
<path d="M189.441 79.4056C189.445 82.2797 188.79 85.1165 187.526 87.6975C186.261 90.2785 184.421 92.5349 182.147 94.2927C179.874 96.0506 177.227 97.2631 174.41 97.8367C171.594 98.4104 168.684 98.33 165.903 97.6016C163.123 96.8733 160.547 95.5165 158.374 93.6358C156.201 91.755 154.488 89.4005 153.368 86.7536C152.248 84.1067 151.751 81.2381 151.914 78.3686C152.077 75.4992 152.897 72.7055 154.31 70.2028C154.88 69.1859 155.544 68.2256 156.296 67.3348C157.535 65.8591 158.99 64.5803 160.614 63.5423C163.355 61.8001 166.502 60.7988 169.746 60.6364C172.991 60.474 176.222 61.1559 179.124 62.6157C182.026 64.0754 184.499 66.2629 186.303 68.9646C188.107 71.6662 189.179 74.7895 189.414 78.0294C189.425 78.4916 189.441 78.9486 189.441 79.4056Z" fill="#EFB7B9"/>
<path opacity="0.1" d="M173.661 124.359L173.598 124.937L164.863 111.28C163.949 113.438 163.439 114.883 163.439 114.883C163.439 114.883 142.691 99.2613 145.974 98.2107C147.077 97.8588 148.527 95.4951 149.961 92.5167L150.139 92.1385C151.663 96.6769 160.513 105.748 164.196 109.383C164.621 109.804 164.973 110.15 165.246 110.402L165.808 110.928L166.102 111.222C167.442 112.603 173.094 118.696 173.661 124.359Z" fill="black"/>
<path d="M180.191 170.699L179.235 201.464L179.067 206.943C179.067 206.943 167.742 205.892 157.173 204.737C148.664 203.807 140.643 202.804 139.409 202.215C137.833 201.475 134.455 200.902 131.792 200.54C129.733 200.261 128.115 200.114 128.115 200.114C128.115 200.114 127.511 200.293 126.581 200.461C124.554 200.828 120.992 201.128 118.918 199.326C116.265 197.02 123.235 188.642 124.974 186.63L125.357 186.194L124.701 180.127L122.994 164.395C122.994 164.395 121.943 155.334 120.367 150.476C119.946 149.094 119.642 147.68 119.459 146.247C118.873 141.81 119.173 137.3 120.341 132.979C120.84 131.143 121.157 129.262 121.287 127.364C121.549 122.505 136.388 103.726 140.065 102.019C141.719 101.248 143.05 99.9205 143.826 98.2686C144.082 97.7493 144.274 97.2007 144.399 96.635C145.974 89.8065 149.961 92.5169 149.961 92.5169C150.923 97.8589 165.804 111.999 165.804 111.999L166.098 112.293C167.574 113.806 174.15 120.908 173.683 126.97C173.589 129.226 173.926 131.479 174.675 133.609C177.702 143.14 179.442 153.033 179.849 163.024L180.191 170.699Z" fill="#DCE6F2"/>
<path opacity="0.1" d="M159.106 134.166C159.106 134.166 155.429 143.095 152.671 144.54C149.914 145.984 160.419 147.586 159.106 134.166Z" fill="black"/>
<path opacity="0.1" d="M161.863 150.843C161.863 150.843 153.459 151.893 153.459 153.469C153.459 155.045 161.863 150.843 161.863 150.843Z" fill="black"/>
<path opacity="0.1" d="M170.662 161.086C170.662 161.086 158.449 187.087 155.035 187.875C151.621 188.663 170.662 161.086 170.662 161.086Z" fill="black"/>
<path opacity="0.1" d="M165.572 113.317L155.471 117.709L143.28 99.2926C143.536 98.7732 143.728 98.2246 143.852 97.659C145.428 90.8304 149.415 93.5408 149.415 93.5408C150.376 98.8829 165.257 113.023 165.257 113.023L165.572 113.317Z" fill="black"/>
<path d="M166.097 112.267L155.996 116.658L143.804 98.242C144.06 97.7226 144.252 97.1741 144.377 96.6084C145.952 89.7799 149.939 92.4903 149.939 92.4903C150.9 97.8323 165.781 111.973 165.781 111.973L166.097 112.267Z" fill="#DCE6F2"/>
<path opacity="0.1" d="M179.066 206.942C179.066 206.942 167.741 205.892 157.173 204.736L176.135 209.7V215.478C175.305 216.229 174.585 216.618 174.118 216.418C171.933 215.499 154.1 212.61 154.1 212.61C154.1 212.61 143.741 207.357 132.563 201.054C132.292 200.904 132.029 200.739 131.776 200.56C130.472 199.675 129.349 198.551 128.466 197.246C126.402 194.257 125.393 190.417 124.957 186.651C124.712 184.493 124.621 182.32 124.684 180.148C124.738 177.686 124.963 175.231 125.357 172.8C124.276 163.384 123.749 153.912 123.781 144.435C123.912 129.727 137.701 124.474 137.701 124.474C163.045 122.242 155.187 163.213 155.187 163.213C155.187 163.213 153.722 174.769 153.322 175.951C152.923 177.133 151.489 179.103 151.683 181.861C151.878 184.618 156.721 187.917 156.721 187.917C156.721 187.917 161.448 190.134 163.397 193.417C164.815 195.838 174.029 199.121 179.234 201.464L179.066 206.942Z" fill="black"/>
<path opacity="0.1" d="M187.555 67.7447C187.565 68.6099 187.385 69.4668 187.03 70.2555C186.76 70.8991 186.448 71.5239 186.095 72.1255C185.542 73.2321 184.757 74.2067 183.794 74.983C182.581 75.8497 181.047 76.0913 179.592 76.4432C178.137 76.7952 176.624 77.3572 175.794 78.5969C175.344 79.3938 175.043 80.266 174.906 81.1707C174.767 82.0747 174.406 82.9301 173.856 83.6605C173.569 84.0171 173.172 84.2684 172.727 84.3749C172.282 84.4814 171.815 84.437 171.398 84.2488C170.958 83.9527 170.625 83.5238 170.447 83.0249C169.848 81.675 169.696 80.1779 169.454 78.7229C169.212 77.2679 168.871 75.7709 167.978 74.5995C167.085 73.4282 165.504 72.656 164.101 73.113C163.632 73.2937 163.204 73.5674 162.843 73.9176C162.482 74.2678 162.195 74.6874 162 75.1511C161.612 76.0794 161.346 77.0539 161.207 78.0506C160.556 81.6154 159.787 85.1593 158.901 88.6821C158.874 88.8265 158.815 88.963 158.728 89.0813C158.588 89.2205 158.4 89.2997 158.203 89.302C157.026 89.4595 155.897 88.6349 154.71 88.7242C154.587 88.7323 154.466 88.7516 154.347 88.7819C152.428 85.4462 151.58 81.6011 151.919 77.7676C152.259 73.9342 153.768 70.2976 156.243 67.3507L156.338 67.3245C157.128 67.0441 157.845 66.592 158.439 66.0008C159.197 65.242 159.899 64.4292 160.54 63.5688L160.96 63.0435C162.168 61.589 163.543 60.2825 165.057 59.1512C165.471 58.8125 165.945 58.5558 166.455 58.3948C166.891 58.3098 167.338 58.2957 167.778 58.3528C169.592 58.5706 171.421 58.6391 173.246 58.5576C174.518 58.3577 175.8 58.228 177.086 58.1689C180.411 58.2635 183.248 60.6115 185.349 63.1853C186.478 64.5038 187.487 66.0218 187.555 67.7447Z" fill="black"/>
<path d="M151.858 70.7018C151.127 71.8994 149.809 72.7136 149.315 74.0268C148.59 75.9335 149.814 78.3078 148.69 80.0097C148.317 80.5822 147.703 81.0077 147.493 81.6643C147.135 82.7726 148.112 83.9545 147.86 85.0943C147.608 86.2342 146.106 87.1954 146.505 88.309C146.741 88.7946 147.155 89.1708 147.661 89.3595C148.457 89.8161 149.373 90.0195 150.287 89.9426C151.721 89.7062 152.787 88.2985 154.242 88.1934C155.424 88.1094 156.554 88.9288 157.73 88.7765C157.927 88.7696 158.115 88.689 158.255 88.5506C158.345 88.4336 158.404 88.2966 158.429 88.1514C159.311 84.6321 160.082 81.0882 160.74 77.5199C160.874 76.5229 161.139 75.548 161.528 74.6203C161.724 74.1576 162.012 73.7389 162.372 73.3888C162.733 73.0388 163.16 72.7646 163.629 72.5823C165.031 72.1306 166.607 72.8974 167.506 74.0688C168.404 75.2402 168.745 76.7372 168.987 78.1922C169.228 79.6472 169.381 81.1443 169.974 82.4942C170.155 82.9949 170.489 83.4253 170.93 83.7234C171.718 84.1803 172.779 83.8179 173.383 83.135C173.937 82.4043 174.298 81.5465 174.434 80.64C174.571 79.7369 174.872 78.8664 175.322 78.0714C176.152 76.8318 177.67 76.2697 179.119 75.9178C180.569 75.5658 182.098 75.319 183.322 74.4523C184.283 73.6768 185.068 72.7042 185.622 71.6C186.4 70.2448 187.125 68.774 187.062 67.214C186.993 65.5121 185.985 63.994 184.908 62.6704C182.807 60.0965 179.965 57.7485 176.64 57.6592C175.354 57.713 174.071 57.8428 172.8 58.0479C170.975 58.13 169.146 58.0597 167.332 57.8378C166.891 57.7851 166.445 57.801 166.008 57.8851C165.498 58.0409 165.025 58.2982 164.617 58.6415C163.101 59.7709 161.724 61.0756 160.514 62.5285C159.734 63.5625 158.889 64.545 157.982 65.4701C157.388 66.0623 156.671 66.516 155.881 66.799C155.356 66.9461 154.831 66.841 154.332 67.0039C152.782 67.4924 152.577 69.5147 151.858 70.7018Z" fill="#965D7B"/>
<path opacity="0.1" d="M202.441 84.9842C198.239 85.7563 194.756 82.3578 192.828 79.8785C192.236 79.1256 191.698 78.3322 191.216 77.5043L205.64 80.2252L206.223 80.3355C206.223 80.3355 208.876 83.8076 202.441 84.9842Z" fill="black"/>
<g opacity="0.1">
<path opacity="0.1" d="M147.86 83.5922C147.919 82.9053 147.815 82.2142 147.556 81.5752C147.556 81.6277 147.508 81.6803 147.493 81.7328C147.267 82.4366 147.571 83.1668 147.766 83.8969C147.807 83.7988 147.839 83.6967 147.86 83.5922Z" fill="black"/>
<path opacity="0.1" d="M149.11 74.9937C149.056 75.72 149.07 76.4498 149.152 77.1735C149.205 76.4472 149.191 75.7174 149.11 74.9937Z" fill="black"/>
<path opacity="0.1" d="M185.59 70.0824C185.038 71.1891 184.253 72.1637 183.29 72.9399C182.076 73.8066 180.548 74.0482 179.088 74.4002C177.627 74.7521 176.12 75.3142 175.29 76.5538C174.841 77.351 174.54 78.2231 174.402 79.1276C174.265 80.0339 173.904 80.8915 173.352 81.6227C172.747 82.3055 171.686 82.6732 170.898 82.211C170.458 81.9129 170.123 81.4825 169.942 80.9819C169.349 79.6319 169.191 78.1401 168.955 76.6799C168.719 75.2196 168.367 73.7278 167.474 72.5565C166.581 71.3851 165 70.6129 163.597 71.0699C163.128 71.2514 162.701 71.5254 162.34 71.8755C161.979 72.2256 161.692 72.6448 161.496 73.108C161.107 74.0357 160.842 75.0106 160.708 76.0075C160.053 79.5759 159.283 83.1197 158.397 86.6391C158.372 86.7842 158.313 86.9212 158.224 87.0383C158.083 87.1767 157.896 87.2573 157.698 87.2641C156.522 87.4165 155.392 86.597 154.211 86.6811C152.756 86.7861 151.689 88.1939 150.255 88.425C149.341 88.507 148.423 88.3033 147.629 87.8419C147.264 87.6849 146.936 87.4521 146.668 87.1591C146.545 87.3351 146.463 87.5367 146.43 87.7487C146.396 87.9607 146.411 88.1776 146.473 88.383C146.705 88.872 147.12 89.2497 147.629 89.4335C148.423 89.8949 149.341 90.0986 150.255 90.0166C151.689 89.7855 152.756 88.3777 154.211 88.2727C155.392 88.1886 156.522 89.0081 157.698 88.8557C157.896 88.8489 158.083 88.7683 158.224 88.6299C158.313 88.5128 158.372 88.3758 158.397 88.2306C159.279 84.7288 160.05 81.185 160.708 77.5991C160.842 76.6022 161.107 75.6273 161.496 74.6996C161.692 74.2364 161.979 73.8172 162.34 73.4671C162.701 73.117 163.128 72.843 163.597 72.6615C165 72.2045 166.575 72.9767 167.474 74.148C168.372 75.3194 168.713 76.8164 168.955 78.2714C169.197 79.7264 169.349 81.2235 169.942 82.5734C170.123 83.0741 170.458 83.5045 170.898 83.8026C171.686 84.2596 172.747 83.8971 173.352 83.2143C173.904 82.4831 174.265 81.6254 174.402 80.7192C174.54 79.8147 174.841 78.9426 175.29 78.1454C176.12 76.9057 177.638 76.3489 179.088 75.9918C180.537 75.6346 182.066 75.3982 183.29 74.5315C184.253 73.7552 185.038 72.7806 185.59 71.674C186.368 70.324 187.093 68.8533 187.03 67.2932C187.019 67.0926 186.998 66.8927 186.967 66.6944C186.713 67.8966 186.247 69.044 185.59 70.0824Z" fill="black"/>
</g>
<path opacity="0.1" d="M187.051 70.2399C188.398 72.6348 189.196 75.2991 189.388 78.0402C184.708 75.4138 180.306 72.53 178.084 71.5268C174.213 69.7776 159.736 70.0402 154.294 70.2031C154.864 69.1862 155.529 68.2259 156.28 67.3351C157.523 65.8581 158.985 64.5793 160.613 63.5426C162.77 62.1737 165.184 61.259 167.707 60.8545C170.229 60.45 172.808 60.5642 175.284 61.19C177.761 61.8159 180.085 62.9403 182.112 64.4945C184.14 66.0487 185.829 68.0001 187.077 70.2293L187.051 70.2399Z" fill="black"/>
<path opacity="0.1" d="M203.754 82.757C201.228 83.5344 197.104 82.0321 192.828 79.8785C192.236 79.1256 191.698 78.3322 191.216 77.5043L205.64 80.2252C206.596 80.8765 206.837 81.8063 203.754 82.757Z" fill="black"/>
<path d="M171.781 52.0285C171.781 52.0285 157.992 51.2406 154.116 58.7257L153.491 65.3599L152.44 65.2444L152.23 69.7565C152.23 69.7565 173.304 68.8372 178.1 71.0014C182.896 73.1655 197.798 84.0702 203.77 82.2317C209.742 80.3933 203.245 78.6861 203.245 78.6861C203.245 78.6861 195.024 75.2036 195.024 72.4721C195.024 69.7407 192.986 55.3114 171.781 52.0285Z" fill="#1731BA"/>
<path opacity="0.1" d="M145.187 297.962C145.187 297.962 153.985 306.498 157.793 305.841C157.793 305.841 147.025 304.922 145.187 297.962Z" fill="black"/>
<path opacity="0.1" d="M143.348 301.917C143.348 301.917 144.136 306.309 146.237 305.878C148.338 305.447 143.348 301.917 143.348 301.917Z" fill="black"/>
<path opacity="0.1" d="M157.136 375.308C157.136 375.308 144.645 385.026 146.752 385.289C148.858 385.551 157.136 375.308 157.136 375.308Z" fill="black"/>
<path d="M173.845 182.444L214.291 175.862V214.154L175.862 212.143L173.845 182.444Z" fill="#3C83E6"/>
<path opacity="0.05" d="M173.845 182.444L214.291 175.862V214.154L175.862 212.143L173.845 182.444Z" fill="black"/>
<path d="M214.291 175.862L262.795 179.491L260.11 212.815L214.291 214.154V175.862Z" fill="#3C83E6"/>
<path opacity="0.1" d="M214.291 175.862L262.795 179.491L260.11 212.815L214.291 214.154V175.862Z" fill="black"/>
<path d="M229.203 164.174L214.291 175.862L262.795 179.491L270.721 167.531L229.203 164.174Z" fill="#3C83E6"/>
<path d="M159.201 169.679L195.613 165.246L214.291 175.862L173.845 182.443L159.201 169.679Z" fill="#3C83E6"/>
<path d="M223.158 185.805V238.159L204.211 236.216L195.97 235.375L193.459 235.113L185.222 234.267L173.845 233.101V182.443L214.286 185.196L223.158 185.805Z" fill="#3C83E6"/>
<path d="M262.795 179.491V230.548L247.609 233.463L240.224 234.882L223.158 238.159V185.805L262.795 179.491Z" fill="#3C83E6"/>
<path opacity="0.05" d="M262.795 179.491V230.548L247.609 233.463L240.224 234.882L223.158 238.159V185.805L262.795 179.491Z" fill="black"/>
<path d="M159.201 193.464L173.845 182.443L223.158 185.805L215.899 198.034L159.201 193.464Z" fill="#3C83E6"/>
<path opacity="0.1" d="M159.201 193.464L173.845 182.443L223.158 185.805L215.899 198.034L159.201 193.464Z" fill="white"/>
<path d="M262.795 179.491L223.158 185.805L236.058 197.361L278.516 190.238L262.795 179.491Z" fill="#3C83E6"/>
<path opacity="0.1" d="M262.795 179.491L223.158 185.805L236.058 197.361L278.516 190.238L262.795 179.491Z" fill="white"/>
<path opacity="0.1" d="M247.61 233.463L240.224 234.881V223.971L247.142 222.228L247.61 233.463Z" fill="white"/>
<path opacity="0.1" d="M204.211 228.999V236.216L195.969 235.375V228.999H204.211Z" fill="white"/>
<path opacity="0.1" d="M193.459 231.273V235.113L185.223 234.267V231.273H193.459Z" fill="white"/>
<path opacity="0.1" d="M218.2 225.17C212.553 232.392 193.906 227.402 193.906 227.402L180.049 212.946L178.168 210.987L181.845 204.159C181.845 204.159 182.896 204.505 184.65 205.115C193.937 208.361 222.953 219.092 218.2 225.17Z" fill="black"/>
<path d="M217.674 224.119C212.028 231.341 193.38 226.351 193.38 226.351L179.524 211.895L177.643 209.936L181.32 203.108C181.32 203.108 182.371 203.454 184.125 204.064C193.412 207.31 222.428 218.041 217.674 224.119Z" fill="#EFB7B9"/>
<path opacity="0.1" d="M184.104 204.064C183.337 206.27 181.389 209.537 179.503 211.895L177.622 209.936L181.299 203.108C181.299 203.108 182.355 203.454 184.104 204.064Z" fill="black"/>
<path d="M138.226 122.373C138.226 122.373 124.438 127.626 124.306 142.334C124.275 151.811 124.801 161.283 125.882 170.699C125.882 170.699 121.943 192.629 133.105 198.932C144.267 205.235 154.641 210.488 154.641 210.488C154.641 210.488 172.474 213.377 174.664 214.296C176.855 215.216 184.466 203.397 183.284 201.427C182.102 199.457 165.866 194.599 163.938 191.316C162.01 188.033 157.262 185.821 157.262 185.821C157.262 185.821 152.419 182.517 152.225 179.76C152.03 177.002 153.459 175.032 153.863 173.85C154.268 172.668 155.733 161.112 155.733 161.112C155.733 161.112 163.571 120.115 138.226 122.373Z" fill="#DCE6F2"/>
<path opacity="0.1" d="M144.53 171.066C144.53 171.066 125.882 173.167 127.327 179.733C127.327 179.733 134.413 173.109 144.53 171.066Z" fill="black"/>
<path opacity="0.1" d="M144.53 173.693C144.53 173.693 133.945 181.44 135.889 181.966C137.832 182.491 144.53 173.693 144.53 173.693Z" fill="black"/>
<path opacity="0.1" d="M149.257 176.844C149.257 176.844 146.237 182.275 147.944 181.992C149.651 181.708 149.257 176.844 149.257 176.844Z" fill="black"/>
<path d="M343.409 59.0356C343.409 59.0356 323.449 57.8327 325.781 71.8365C325.781 71.8365 325.314 74.3105 327.557 75.4346C327.557 75.4346 327.593 74.3841 329.605 74.7465C330.322 74.8671 331.05 74.9024 331.774 74.8516C332.757 74.7861 333.69 74.4004 334.432 73.7537C334.432 73.7537 340.048 71.4373 342.233 62.2555C342.233 62.2555 343.851 60.2489 343.809 59.7342L340.436 61.1787C340.436 61.1787 341.587 63.6107 340.678 65.633C340.678 65.633 340.573 61.268 339.921 61.3678C339.79 61.3678 338.172 62.2135 338.172 62.2135C338.172 62.2135 340.153 66.4472 338.656 69.5305C338.656 69.5305 339.223 64.3093 337.552 62.5181L335.178 63.9049C335.178 63.9049 337.495 68.2804 335.924 71.8523C335.924 71.8523 336.329 66.3736 334.679 64.241L332.526 65.9167C332.526 65.9167 334.706 70.2344 333.377 73.197C333.377 73.197 333.203 66.8201 332.058 66.3369C332.058 66.3369 330.178 67.9967 329.894 68.6796C329.894 68.6796 331.381 71.8312 330.456 73.4648C330.456 73.4648 329.889 69.2154 329.406 69.1944C329.406 69.1944 327.53 72.0098 327.336 73.9218C327.427 72.1393 327.983 70.4117 328.948 68.9107C327.868 69.1152 326.871 69.632 326.081 70.3972C326.081 70.3972 326.369 68.4065 329.411 68.2331C329.411 68.2331 330.987 66.0952 331.375 65.9639C331.375 65.9639 328.35 65.7118 326.516 66.526C326.516 66.526 328.129 64.6507 331.932 65.4754L334.033 63.742C334.033 63.742 330.052 63.2167 328.36 63.7998C328.36 63.7998 330.304 62.1399 334.606 63.3481L336.917 61.9666C336.917 61.9666 333.524 61.2312 331.501 61.4991C331.501 61.4991 333.634 60.3487 337.595 61.5936L339.249 60.853C339.249 60.853 336.759 60.3645 336.034 60.2857C335.31 60.2069 335.268 60.0073 335.268 60.0073C336.843 59.7452 338.46 59.9271 339.937 60.5326C339.937 60.5326 343.483 59.2562 343.409 59.0356Z" fill="#3C83E6"/>
<path opacity="0.1" d="M404.057 129.076C404.057 129.076 384.097 127.873 386.429 141.877C386.429 141.877 385.961 144.351 388.204 145.475C388.204 145.475 388.241 144.424 390.258 144.787C390.974 144.907 391.703 144.942 392.427 144.892C393.398 144.821 394.32 144.438 395.054 143.799C395.054 143.799 400.674 141.477 402.859 132.296C402.859 132.296 404.472 130.294 404.409 129.78L401.037 131.219C401.037 131.219 402.187 133.651 401.284 135.673C401.284 135.673 401.173 131.308 400.527 131.408C400.396 131.408 398.773 132.254 398.773 132.254C398.773 132.254 400.758 136.493 399.261 139.571C399.261 139.571 399.829 134.349 398.153 132.558L395.805 133.929C395.805 133.929 398.121 138.305 396.551 141.877C396.551 141.877 396.955 136.398 395.306 134.265L393.158 135.946C393.158 135.946 395.332 140.259 394.009 143.221C394.009 143.221 393.835 136.844 392.69 136.361C392.69 136.361 390.81 138.021 390.521 138.704C390.521 138.704 392.012 141.856 391.088 143.489C391.088 143.489 390.521 139.24 390.037 139.219C390.037 139.219 388.162 142.034 387.968 143.946C388.062 142.163 388.619 140.436 389.586 138.935C388.504 139.14 387.505 139.657 386.712 140.422C386.712 140.422 387.007 138.431 390.048 138.257C390.048 138.257 391.598 136.12 392.012 135.988C392.012 135.988 388.987 135.736 387.154 136.55C387.154 136.55 388.766 134.675 392.564 135.526L394.665 133.793C394.665 133.793 390.678 133.267 388.992 133.85C388.992 133.85 390.936 132.191 395.238 133.399L397.549 132.017C397.549 132.017 394.15 131.287 392.128 131.55C392.128 131.55 394.266 130.399 398.226 131.644L399.881 130.904C399.881 130.904 397.391 130.415 396.661 130.336C395.931 130.258 395.894 130.058 395.894 130.058C397.471 129.796 399.09 129.977 400.569 130.583C400.569 130.583 404.12 129.296 404.057 129.076Z" fill="#3C83E6"/>
<path opacity="0.1" d="M282.797 116.643C282.797 116.643 287.394 97.1602 273.19 97.092C273.19 97.092 270.832 96.2095 269.345 98.2266C269.345 98.2266 270.359 98.4419 269.671 100.364C269.433 101.044 269.274 101.749 269.198 102.466C269.096 103.442 269.316 104.425 269.823 105.265C269.823 105.265 271.152 111.201 279.803 114.92C279.803 114.92 281.505 116.853 282.02 116.874L281.18 113.307C281.18 113.307 278.585 114.027 276.746 112.782C276.746 112.782 281.069 113.417 281.075 112.782C281.075 112.651 280.549 110.912 280.549 110.912C280.549 110.912 276.037 112.141 273.253 110.14C273.253 110.14 278.301 111.59 280.355 110.25L279.409 107.666C279.409 107.666 274.682 109.205 271.446 107.046C271.446 107.046 276.778 108.38 279.163 107.119L277.876 104.714C277.876 104.714 273.253 106.121 270.559 104.309C270.559 104.309 276.862 105.223 277.545 104.183C277.545 104.183 276.232 102.045 275.606 101.646C275.606 101.646 272.266 102.581 270.795 101.389C270.795 101.389 275.076 101.552 275.176 101.1C275.176 101.1 272.723 98.7728 270.853 98.2476C272.595 98.6443 274.205 99.4879 275.522 100.695C275.503 99.5945 275.164 98.5231 274.545 97.612C274.545 97.612 276.457 98.2423 276.121 101.289C276.121 101.289 277.96 103.18 278.018 103.611C278.018 103.611 278.779 100.674 278.291 98.7256C278.291 98.7256 279.866 100.638 278.38 104.236L279.725 106.626C279.725 106.626 280.943 102.791 280.633 101.026C280.633 101.026 281.941 103.222 280.014 107.256L280.985 109.772C280.985 109.772 282.283 106.547 282.367 104.519C282.367 104.519 283.139 106.82 281.232 110.513L281.684 112.267C281.684 112.267 282.587 109.898 282.787 109.194C282.987 108.49 283.191 108.485 283.191 108.485C283.183 110.083 282.731 111.647 281.884 113.003C281.884 113.003 282.572 116.669 282.797 116.643Z" fill="#3C83E6"/>
<path opacity="0.1" d="M239.085 123.282C239.085 123.282 223.053 111.29 217.323 124.28C217.323 124.28 215.573 126.092 216.829 128.262C216.829 128.262 217.428 127.416 218.93 128.818C219.462 129.313 220.051 129.744 220.684 130.1C221.542 130.578 222.533 130.762 223.505 130.625C223.505 130.625 229.472 131.776 236.343 125.31C236.343 125.31 238.796 124.522 239.027 124.059L235.408 123.424C235.408 123.424 235.03 126.087 233.165 127.279C233.165 127.279 235.471 123.571 234.872 123.303C234.751 123.245 232.944 123.04 232.944 123.04C232.944 123.04 232.272 127.673 229.33 129.422C229.33 129.422 232.676 125.373 232.261 122.956L229.514 122.809C229.514 122.809 229.047 127.742 225.769 129.864C225.769 129.864 229.115 125.509 228.921 122.82L226.2 123.04C226.2 123.04 225.648 127.836 222.911 129.58C222.911 129.58 226.268 124.159 225.58 123.13C225.58 123.13 223.095 123.482 222.481 123.891C222.481 123.891 222.003 127.327 220.322 128.199C220.322 128.199 222.187 124.338 221.808 124.07C221.808 124.07 218.693 125.388 217.47 126.891C218.528 125.452 219.944 124.315 221.577 123.592C220.561 123.17 219.444 123.053 218.363 123.256C218.363 123.256 219.697 121.753 222.334 123.282C222.334 123.282 224.802 122.352 225.223 122.468C225.223 122.468 222.833 120.593 220.852 120.267C220.852 120.267 223.237 119.584 225.942 122.368L228.668 122.09C228.668 122.09 225.638 119.463 223.899 119.022C223.899 119.022 226.436 118.702 229.362 122.074L232.051 122.195C232.051 122.195 229.619 119.715 227.786 118.822C227.786 118.822 230.197 119.033 232.823 122.252L234.615 122.541C234.615 122.541 232.802 120.766 232.235 120.304C231.668 119.841 231.747 119.647 231.747 119.647C233.208 120.294 234.461 121.334 235.366 122.652C235.366 122.652 239.016 123.497 239.085 123.282Z" fill="#3C83E6"/>
<path opacity="0.1" d="M292.457 11.8661C292.457 11.8661 276.426 -0.131188 270.695 12.8641C270.695 12.8641 268.946 14.6763 270.202 16.8457C270.202 16.8457 270.8 16 272.303 17.4025C272.838 17.895 273.428 18.3233 274.062 18.6789C274.92 19.157 275.911 19.3414 276.883 19.2042C276.883 19.2042 282.85 20.3545 289.721 13.8831C289.721 13.8831 292.174 13.1005 292.4 12.633L288.781 12.0079C288.781 12.0079 288.408 14.671 286.538 15.8634C286.538 15.8634 288.849 12.155 288.25 11.8871C288.129 11.8293 286.322 11.6245 286.322 11.6245C286.322 11.6245 285.629 16.2679 282.687 18.0065C282.687 18.0065 286.028 13.9567 285.618 11.5404L282.871 11.3933C282.871 11.3933 282.398 16.3257 279.126 18.4425C279.126 18.4425 282.472 14.088 282.278 11.3986L279.562 11.6192C279.562 11.6192 279.005 16.4202 276.268 18.1641C276.268 18.1641 279.63 12.7433 278.942 11.7138C278.942 11.7138 276.458 12.0657 275.843 12.4754C275.843 12.4754 275.365 15.9107 273.684 16.7826C273.684 16.7826 275.549 12.9219 275.171 12.6487C275.171 12.6487 272.056 13.9724 270.832 15.4747C271.889 14.0348 273.305 12.8974 274.94 12.176C273.922 11.7505 272.803 11.6336 271.72 11.8398C271.72 11.8398 273.059 10.3375 275.696 11.8661C275.696 11.8661 278.165 10.9311 278.585 11.0519C278.585 11.0519 276.195 9.17668 274.215 8.84575C274.215 8.84575 276.594 8.16815 279.299 10.9469L282.026 10.6685C282.026 10.6685 279 8.04208 277.256 7.5956C277.256 7.5956 279.793 7.28043 282.724 10.6527L285.414 10.7683C285.414 10.7683 282.982 8.28896 281.143 7.40125C281.143 7.40125 283.559 7.61136 286.186 10.8313L287.972 11.1202C287.972 11.1202 286.154 9.36577 285.587 8.91404C285.02 8.4623 285.098 8.2627 285.098 8.2627C286.56 8.90909 287.813 9.9494 288.717 11.2673C288.717 11.2673 292.368 12.0657 292.457 11.8661Z" fill="#3C83E6"/>
<path opacity="0.1" d="M353.715 27.062C353.715 27.062 347.307 8.09438 335.22 15.548C335.22 15.548 332.751 16.0733 332.557 18.5473C332.557 18.5473 333.529 18.1902 333.96 20.1862C334.12 20.8962 334.361 21.5854 334.679 22.24C335.113 23.121 335.821 23.8378 336.696 24.2833C336.696 24.2833 340.961 28.6168 350.29 27.1828C350.29 27.1828 352.754 27.9287 353.206 27.6714L350.579 25.0923C350.579 25.0923 348.762 27.0725 346.545 26.9938C346.545 26.9938 350.553 25.2498 350.222 24.6878C350.154 24.5775 348.783 23.3851 348.783 23.3851C348.783 23.3851 345.6 26.8152 342.185 26.5893C342.185 26.5893 347.233 25.15 348.263 22.9124L346.088 21.2367C346.088 21.2367 342.905 25.0292 339.002 24.9137C339.002 24.9137 344.255 23.2275 345.584 20.8953L343.22 19.5349C343.22 19.5349 340.069 23.175 336.801 23.0594C336.801 23.0594 342.642 20.5014 342.658 19.2617C342.658 19.2617 340.415 18.1429 339.675 18.1324C339.675 18.1324 337.332 20.6905 335.472 20.4593C335.472 20.4593 339.191 18.332 339.034 17.896C339.034 17.896 335.725 17.2184 333.86 17.7647C335.546 17.1775 337.357 17.0416 339.113 17.3707C338.513 16.4457 337.657 15.7155 336.649 15.2696C336.649 15.2696 338.603 14.7916 339.911 17.5441C339.911 17.5441 342.474 18.1796 342.747 18.5106C342.747 18.5106 341.844 15.6163 340.399 14.2191C340.399 14.2191 342.747 15.0122 343.388 18.852L345.794 20.1652C345.794 20.1652 344.801 16.2729 343.604 14.9124C343.604 14.9124 345.878 16.0891 346.372 20.5276L348.525 22.1507C348.525 22.1507 347.927 18.7259 346.918 16.9505C346.918 16.9505 348.788 18.4948 349.124 22.6392L350.432 23.8894C350.432 23.8894 349.949 21.3996 349.749 20.6957C349.55 19.9918 349.713 19.9446 349.713 19.9446C350.548 21.3072 350.989 22.8743 350.989 24.4724C350.989 24.4724 353.531 27.1986 353.715 27.062Z" fill="#3C83E6"/>
<path opacity="0.1" d="M311.893 27.9972C311.893 27.9972 291.985 25.7806 293.629 39.9052C293.629 39.9052 293.036 42.353 295.205 43.5821C295.205 43.5821 295.294 42.5316 297.306 43.0043C298.017 43.1573 298.743 43.2295 299.47 43.2197C300.453 43.2019 301.402 42.8645 302.175 42.2584C302.175 42.2584 307.906 40.2256 310.58 31.1646C310.58 31.1646 312.292 29.2474 312.255 28.7274L308.815 29.9985C308.815 29.9985 309.865 32.4831 308.815 34.4581C308.815 34.4581 308.925 30.0931 308.29 30.1614C308.158 30.1614 306.498 30.9178 306.498 30.9178C306.498 30.9178 308.263 35.2513 306.614 38.2716C306.614 38.2716 307.444 33.0819 305.863 31.2119L303.42 32.4726C303.42 32.4726 305.521 36.9637 303.762 40.4515C303.762 40.4515 304.445 34.9991 302.906 32.7877L300.673 34.3636C300.673 34.3636 302.627 38.7811 301.151 41.6754C301.151 41.6754 301.303 35.2985 300.185 34.7575C300.185 34.7575 298.22 36.3333 297.9 36.9847C297.9 36.9847 299.229 40.1888 298.225 41.7909C298.225 41.7909 297.873 37.5205 297.411 37.4784C297.411 37.4784 295.394 40.1941 295.1 42.1113C295.282 40.3338 295.927 38.6351 296.97 37.1843C295.88 37.3349 294.858 37.8004 294.028 38.5237C294.028 38.5237 294.417 36.5539 297.464 36.5329C297.464 36.5329 299.118 34.4791 299.565 34.3688C299.565 34.3688 296.555 33.9643 294.68 34.684C294.68 34.684 296.387 32.8875 300.137 33.9328L302.349 32.3097C302.349 32.3097 298.351 31.5008 296.66 32.0261C296.66 32.0261 298.688 30.4503 302.921 31.8948L305.301 30.6289C305.301 30.6289 301.944 29.7254 299.912 29.8882C299.912 29.8882 302.102 28.8377 305.994 30.2927L307.686 29.6361C307.686 29.6361 305.222 29.0215 304.497 28.906C303.772 28.7904 303.746 28.5908 303.746 28.5908C305.334 28.4086 306.941 28.6704 308.389 29.3472C308.389 29.3472 311.93 28.2178 311.893 27.9972Z" fill="#3C83E6"/>
<path opacity="0.1" d="M486.073 182.517C486.073 182.517 466.176 180.3 467.82 194.409C467.82 194.409 467.227 196.857 469.396 198.086C469.396 198.086 469.485 197.036 471.497 197.503C472.207 197.661 472.934 197.734 473.661 197.719C474.644 197.703 475.595 197.366 476.366 196.757C476.366 196.757 482.097 194.724 484.745 185.669C484.745 185.669 486.457 183.746 486.42 183.231L482.98 184.497C482.98 184.497 484.03 186.987 482.98 188.962C482.98 188.962 483.09 184.592 482.454 184.665C482.323 184.665 480.663 185.417 480.663 185.417C480.663 185.417 482.428 189.75 480.779 192.77C480.779 192.77 481.609 187.586 480.028 185.711L477.585 186.977C477.585 186.977 479.686 191.468 477.932 194.956C477.932 194.956 478.609 189.503 477.07 187.287L474.838 188.862C474.838 188.862 476.792 193.28 475.316 196.169C475.316 196.169 475.468 189.792 474.349 189.256C474.349 189.256 472.39 190.832 472.064 191.484C472.064 191.484 473.399 194.688 472.39 196.29C472.39 196.29 472.038 192.019 471.576 191.977C471.576 191.977 469.559 194.693 469.265 196.61C469.447 194.833 470.092 193.134 471.135 191.683C470.044 191.831 469.021 192.297 468.193 193.023C468.193 193.023 468.582 191.048 471.628 191.027C471.628 191.027 473.288 188.973 473.73 188.868C473.73 188.868 470.72 188.458 468.844 189.178C468.844 189.178 470.552 187.386 474.307 188.432L476.514 186.809C476.514 186.809 472.563 186.063 470.846 186.577C470.846 186.577 472.873 185.002 477.107 186.441L479.487 185.18C479.487 185.18 476.13 184.277 474.097 184.44C474.097 184.44 476.288 183.389 480.18 184.844L481.871 184.182C481.871 184.182 479.408 183.568 478.683 183.457C477.958 183.347 477.932 183.142 477.932 183.142C479.519 182.957 481.127 183.217 482.575 183.893C482.575 183.893 486.126 182.743 486.073 182.517Z" fill="#3C83E6"/>
<path opacity="0.1" d="M516.492 201.101C516.492 201.101 496.595 198.89 498.239 212.993C498.239 212.993 497.651 215.441 499.815 216.67C499.815 216.67 499.904 215.62 501.916 216.093C502.625 216.247 503.349 216.317 504.075 216.303C505.052 216.283 505.998 215.947 506.769 215.347C506.769 215.347 512.495 213.314 515.142 204.253C515.142 204.253 516.86 202.336 516.818 201.816L513.377 203.082C513.377 203.082 514.428 205.571 513.377 207.546C513.377 207.546 513.488 203.181 512.852 203.25C512.721 203.25 511.061 204.001 511.061 204.001C511.061 204.001 512.826 208.334 511.176 211.355C511.176 211.355 512.006 206.17 510.425 204.3L507.983 205.561C507.983 205.561 510.084 210.052 508.329 213.54C508.329 213.54 509.007 208.087 507.468 205.876L505.236 207.452C505.236 207.452 507.19 211.869 505.719 214.764C505.719 214.764 505.866 208.382 504.747 207.846C504.747 207.846 502.788 209.422 502.462 210.073C502.462 210.073 503.796 213.277 502.788 214.879C502.788 214.879 502.436 210.609 501.974 210.567C501.974 210.567 499.957 213.282 499.668 215.2C499.849 213.423 500.492 211.724 501.532 210.273C500.442 210.423 499.42 210.889 498.591 211.612C498.591 211.612 498.985 209.637 502.031 209.621C502.031 209.621 503.686 207.567 504.132 207.457C504.132 207.457 501.123 207.053 499.247 207.772C499.247 207.772 500.955 205.976 504.71 207.021L506.916 205.398C506.916 205.398 502.966 204.652 501.249 205.167C501.249 205.167 503.276 203.591 507.51 205.036L509.889 203.77C509.889 203.77 506.533 202.866 504.5 203.029C504.5 203.029 506.691 201.978 510.583 203.433L512.274 202.777C512.274 202.777 509.811 202.162 509.091 202.047C508.371 201.931 508.335 201.732 508.335 201.732C509.923 201.549 511.53 201.811 512.978 202.488C512.978 202.488 516.545 201.327 516.492 201.101Z" fill="#3C83E6"/>
<path opacity="0.1" d="M448.958 44.5645C448.958 44.5645 432.927 32.5725 427.196 45.5625C427.196 45.5625 425.447 47.3747 426.702 49.5441C426.702 49.5441 427.301 48.6984 428.803 50.1009C429.335 50.5959 429.924 51.0262 430.558 51.3826C431.416 51.8599 432.406 52.0443 433.378 51.9078C433.378 51.9078 439.345 53.0582 446.221 46.592C446.221 46.592 448.669 45.8041 448.9 45.3419L445.292 44.6906C445.292 44.6906 444.913 47.3537 443.049 48.5461C443.049 48.5461 445.355 44.8376 444.756 44.5697C444.635 44.512 442.833 44.3071 442.833 44.3071C442.833 44.3071 442.156 48.94 439.214 50.6892C439.214 50.6892 442.56 46.6393 442.145 44.2231L439.398 44.076C439.398 44.076 438.93 49.0083 435.653 51.1304C435.653 51.1304 439.004 46.7759 438.804 44.0865L436.083 44.3071C436.083 44.3071 435.558 49.1029 432.795 50.8468C432.795 50.8468 436.157 45.4259 435.464 44.3964C435.464 44.3964 432.979 44.7483 432.365 45.1581C432.365 45.1581 431.892 48.5933 430.211 49.4653C430.211 49.4653 432.07 45.6045 431.692 45.3366C431.692 45.3366 428.577 46.6551 427.353 48.1574C428.412 46.719 429.828 45.5819 431.461 44.8586C430.445 44.4363 429.328 44.3195 428.246 44.5225C428.246 44.5225 429.586 43.0202 432.223 44.5487C432.223 44.5487 434.686 43.619 435.106 43.7346C435.106 43.7346 432.716 41.8593 430.736 41.5337C430.736 41.5337 433.121 40.8508 435.826 43.6348L438.552 43.3564C438.552 43.3564 435.527 40.73 433.783 40.2888C433.783 40.2888 436.32 39.9683 439.246 43.3406L441.94 43.4614C441.94 43.4614 439.503 40.9821 437.67 40.0892C437.67 40.0892 440.086 40.2993 442.707 43.5192L444.498 43.8081C444.498 43.8081 442.686 42.0327 442.119 41.5704C441.552 41.1082 441.636 40.9559 441.636 40.9559C443.095 41.604 444.346 42.6441 445.25 43.9604C445.25 43.9604 448.89 44.7799 448.958 44.5645Z" fill="#3C83E6"/>
<path opacity="0.1" d="M461.344 131.14C461.344 131.14 455.818 111.899 443.39 118.807C443.39 118.807 440.9 119.19 440.59 121.68C440.59 121.68 441.578 121.37 441.919 123.382C442.046 124.105 442.257 124.81 442.549 125.483C442.939 126.388 443.614 127.141 444.472 127.626C444.472 127.626 448.537 132.143 457.919 131.135C457.919 131.135 460.346 131.986 460.808 131.755L458.323 129.055C458.323 129.055 456.417 130.956 454.21 130.778C454.21 130.778 458.287 129.202 457.971 128.64C457.908 128.524 456.595 127.269 456.595 127.269C456.595 127.269 453.265 130.557 449.861 130.174C449.861 130.174 454.972 128.966 456.096 126.791L453.995 125.015C453.995 125.015 450.644 128.661 446.752 128.377C446.752 128.377 452.046 126.922 453.507 124.658L451.206 123.193C451.206 123.193 447.87 126.686 444.635 126.423C444.635 126.423 450.586 124.128 450.66 122.893C450.66 122.893 448.464 121.675 447.723 121.633C447.723 121.633 445.27 124.08 443.406 123.765C443.406 123.765 447.219 121.806 447.082 121.365C447.082 121.365 443.805 120.54 441.919 120.997C443.627 120.491 445.437 120.438 447.172 120.845C446.616 119.894 445.794 119.127 444.808 118.639C444.808 118.639 446.783 118.245 447.96 121.055C447.96 121.055 450.486 121.801 450.749 122.147C450.749 122.147 449.977 119.211 448.595 117.756C448.595 117.756 450.906 118.649 451.374 122.515L453.717 123.939C453.717 123.939 452.897 119.999 451.763 118.612C451.763 118.612 453.979 119.889 454.279 124.343L456.38 126.061C456.38 126.061 455.933 122.615 455.009 120.808C455.009 120.808 456.811 122.436 456.958 126.586L458.208 127.899C458.208 127.899 457.84 125.388 457.683 124.674C457.525 123.96 457.683 123.86 457.683 123.86C458.46 125.257 458.833 126.843 458.759 128.44C458.759 128.44 461.155 131.266 461.344 131.14Z" fill="#3C83E6"/>
<path opacity="0.1" d="M338.209 174.496C338.209 174.496 327.478 157.593 317.513 167.709C317.513 167.709 315.234 168.76 315.633 171.255C315.633 171.255 316.5 170.677 317.393 172.516C317.713 173.167 318.112 173.778 318.58 174.333C319.206 175.092 320.064 175.623 321.022 175.846C321.022 175.846 326.196 179.04 334.916 175.426C334.916 175.426 337.484 175.562 337.862 175.21L334.711 173.319C334.711 173.319 333.413 175.683 331.244 176.13C331.244 176.13 334.721 173.503 334.254 173.02C334.165 172.925 332.547 172.095 332.547 172.095C332.547 172.095 330.272 176.182 326.9 176.776C326.9 176.776 331.465 174.176 331.937 171.77L329.421 170.661C329.421 170.661 327.231 175.1 323.417 175.914C323.417 175.914 328.092 173.03 328.854 170.446L326.228 169.69C326.228 169.69 324.011 173.981 320.833 174.638C320.833 174.638 325.897 170.761 325.618 169.553C325.618 169.553 323.171 169.002 322.467 169.17C322.467 169.17 320.802 172.211 318.921 172.432C318.921 172.432 322.031 169.48 321.773 169.091C321.773 169.091 318.396 169.222 316.715 170.194C318.214 169.223 319.942 168.661 321.726 168.566C320.927 167.81 319.925 167.304 318.842 167.111C318.842 167.111 320.623 166.181 322.519 168.545C322.519 168.545 325.146 168.545 325.508 168.807C325.508 168.807 323.932 166.181 322.204 165.199C322.204 165.199 324.673 165.409 326.207 168.986L328.859 169.69C328.859 169.69 326.963 166.144 325.487 165.13C325.487 165.13 327.972 165.729 329.511 169.926L331.99 170.977C331.99 170.977 330.593 167.799 329.19 166.312C329.19 166.312 331.375 167.363 332.683 171.308L334.259 172.216C334.259 172.216 333.209 169.91 332.836 169.275C332.463 168.639 332.61 168.492 332.61 168.492C333.746 169.615 334.548 171.032 334.926 172.584C334.926 172.584 338.067 174.675 338.209 174.496Z" fill="#3C83E6"/>
<path d="M408.737 88.1304C408.737 88.1304 398.531 70.9067 388.251 80.7083C388.251 80.7083 385.94 81.7063 386.266 84.1961C386.266 84.1961 387.143 83.6393 387.983 85.504C388.284 86.1669 388.663 86.7912 389.113 87.3635C389.716 88.1381 390.558 88.692 391.508 88.9393C391.508 88.9393 396.577 92.2906 405.407 88.9393C405.407 88.9393 407.97 89.1547 408.359 88.8133L405.276 86.8277C405.276 86.8277 403.91 89.1442 401.725 89.5276C401.725 89.5276 405.281 86.9906 404.834 86.5126C404.74 86.4128 403.153 85.5303 403.153 85.5303C403.153 85.5303 400.753 89.5487 397.375 90.0372C397.375 90.0372 402.019 87.5789 402.56 85.1941L400.081 84.028C400.081 84.028 397.754 88.4036 393.914 89.1022C393.914 89.1022 398.678 86.3655 399.518 83.8074L396.924 82.967C396.924 82.967 394.57 87.1692 391.377 87.747C391.377 87.747 396.556 84.028 396.314 82.8146C396.314 82.8146 393.888 82.1843 393.163 82.3314C393.163 82.3314 391.403 85.3202 389.517 85.483C389.517 85.483 392.716 82.636 392.475 82.2368C392.475 82.2368 389.092 82.2631 387.385 83.1823C388.914 82.2599 390.658 81.7529 392.443 81.7116C391.667 80.9307 390.679 80.3939 389.601 80.1673C389.601 80.1673 391.413 79.29 393.278 81.7116C393.278 81.7116 395.905 81.8009 396.257 82.0688C396.257 82.0688 394.77 79.4424 393.068 78.3603C393.068 78.3603 395.526 78.644 396.95 82.2684L399.576 83.0563C399.576 83.0563 397.796 79.4529 396.346 78.3918C396.346 78.3918 398.815 79.0694 400.222 83.3084L402.665 84.4482C402.665 84.4482 401.367 81.2283 400.039 79.7208C400.039 79.7208 402.187 80.8396 403.379 84.8212L404.918 85.7772C404.918 85.7772 403.931 83.4397 403.584 82.7936C403.237 82.1475 403.384 82.0057 403.384 82.0057C404.486 83.163 405.244 84.6032 405.575 86.1659C405.575 86.1659 408.585 88.3038 408.737 88.1304Z" fill="#3C83E6"/>
<path d="M344.166 124.348C344.166 124.348 344.691 104.335 330.787 107.156C330.787 107.156 328.297 106.773 327.247 109.052C327.247 109.052 328.297 109.052 328.003 111.075C327.907 111.796 327.896 112.526 327.971 113.249C328.066 114.231 328.482 115.154 329.153 115.876C329.153 115.876 331.659 121.412 340.909 123.293C340.909 123.293 342.963 124.842 343.478 124.758L341.902 121.438C341.902 121.438 339.512 122.668 337.458 121.832C337.458 121.832 341.818 121.575 341.697 120.934C341.697 120.803 340.793 119.206 340.793 119.206C340.793 119.206 336.623 121.333 333.497 119.936C333.497 119.936 338.75 120.33 340.468 118.602L339.002 116.275C339.002 116.275 334.706 118.733 331.081 117.284C331.081 117.284 336.57 117.504 338.65 115.786L336.901 113.685C336.901 113.685 332.662 116.007 329.658 114.778C329.658 114.778 336.024 114.395 336.486 113.234C336.486 113.234 334.763 111.411 334.07 111.133C334.07 111.133 330.992 112.708 329.311 111.857C329.311 111.857 333.513 111.154 333.539 110.686C333.539 110.686 330.666 108.905 328.728 108.774C330.515 108.806 332.263 109.306 333.797 110.224C333.557 109.15 333.01 108.17 332.221 107.403C332.221 107.403 334.222 107.629 334.495 110.66C334.495 110.66 336.686 112.141 336.828 112.551C336.828 112.551 336.98 109.52 336.103 107.713C336.103 107.713 338.036 109.263 337.311 113.087L339.113 115.156C339.113 115.156 339.522 111.154 338.866 109.488C338.866 109.488 340.589 111.374 339.528 115.713L340.983 117.977C340.983 117.977 341.602 114.557 341.271 112.546C341.271 112.546 342.49 114.647 341.376 118.644L342.175 120.272C342.175 120.272 342.579 117.767 342.632 117.037C342.684 116.307 342.884 116.259 342.884 116.259C343.2 117.826 343.075 119.45 342.522 120.95C342.522 120.95 343.935 124.417 344.166 124.348Z" fill="#3C83E6"/>
<path opacity="0.1" d="M367.152 378.644C374.964 378.644 381.297 377.574 381.297 376.254C381.297 374.934 374.964 373.864 367.152 373.864C359.339 373.864 353.006 374.934 353.006 376.254C353.006 377.574 359.339 378.644 367.152 378.644Z" fill="#3C83E6"/>
<path opacity="0.1" d="M315.586 414.93C323.398 414.93 329.731 413.86 329.731 412.54C329.731 411.22 323.398 410.15 315.586 410.15C307.773 410.15 301.44 411.22 301.44 412.54C301.44 413.86 307.773 414.93 315.586 414.93Z" fill="#3C83E6"/>
<path opacity="0.1" d="M48.924 396.34C56.7364 396.34 63.0696 395.27 63.0696 393.95C63.0696 392.63 56.7364 391.56 48.924 391.56C41.1115 391.56 34.7783 392.63 34.7783 393.95C34.7783 395.27 41.1115 396.34 48.924 396.34Z" fill="#3C83E6"/>
<path opacity="0.1" d="M422.877 412.54C430.69 412.54 437.023 411.47 437.023 410.15C437.023 408.83 430.69 407.76 422.877 407.76C415.065 407.76 408.732 408.83 408.732 410.15C408.732 411.47 415.065 412.54 422.877 412.54Z" fill="#3C83E6"/>
<path d="M437.606 383.398C449.271 383.398 458.727 381.799 458.727 379.826C458.727 377.853 449.271 376.254 437.606 376.254C425.941 376.254 416.485 377.853 416.485 379.826C416.485 381.799 425.941 383.398 437.606 383.398Z" fill="#3C83E6"/>
<path d="M446.363 373.98C447.327 373.196 448.029 372.137 448.375 370.944C448.637 369.735 448.122 368.291 446.972 367.85C445.68 367.356 444.299 368.249 443.248 369.152C442.197 370.056 441.005 371.091 439.634 370.902C440.338 370.262 440.864 369.452 441.163 368.549C441.461 367.646 441.521 366.681 441.336 365.749C441.276 365.362 441.113 364.999 440.863 364.698C440.144 363.931 438.846 364.262 437.985 364.866C435.253 366.789 434.492 370.497 434.476 373.838C434.203 372.635 434.434 371.38 434.429 370.161C434.423 368.942 434.082 367.535 433.037 366.894C432.395 366.536 431.67 366.355 430.936 366.368C429.706 366.326 428.335 366.447 427.5 367.345C426.45 368.459 426.728 370.334 427.632 371.548C428.535 372.761 429.916 373.544 431.188 374.395C432.205 375.002 433.074 375.83 433.73 376.816C433.805 376.954 433.866 377.098 433.914 377.247H441.614C443.338 376.379 444.936 375.279 446.363 373.98Z" fill="#3C83E6"/>
<path d="M39.4268 382.841C39.4268 382.841 47.4897 382.594 49.9322 380.861C52.3748 379.127 62.3445 377.063 62.9486 379.841C63.5526 382.62 75.0719 393.651 65.9636 393.725C56.8554 393.798 44.8003 392.306 42.3735 390.825C39.9468 389.344 39.4268 382.841 39.4268 382.841Z" fill="#A8A8A8"/>
<path opacity="0.2" d="M66.116 392.758C57.0077 392.831 44.9526 391.34 42.5259 389.858C40.6769 388.734 39.9415 384.695 39.6947 382.83H39.4268C39.4268 382.83 39.952 389.338 42.363 390.814C44.7741 392.29 56.8449 393.787 65.9531 393.714C68.5795 393.714 69.4882 392.758 69.4409 391.371C69.0732 392.217 68.07 392.742 66.116 392.758Z" fill="black"/>
</g>
<defs>
<linearGradient id="paint0_linear_1_1738" x1="117.131" y1="227.665" x2="281.085" y2="227.665" gradientUnits="userSpaceOnUse">
<stop stop-color="#808080" stop-opacity="0.25"/>
<stop offset="0.54" stop-color="#808080" stop-opacity="0.12"/>
<stop offset="1" stop-color="#808080" stop-opacity="0.1"/>
</linearGradient>
<clipPath id="clip0_1_1738">
<rect width="530.286" height="414.93" fill="white"/>
</clipPath>
</defs>
</svg>
