<svg width="21" height="19" viewBox="0 0 21 19" fill="none" xmlns="http://www.w3.org/2000/svg">
<g filter="url(#filter0_d_1_1063)">
<path d="M19.081 9.63431L16.1997 10.3726C15.7627 10.4846 15.3049 10.4885 14.866 10.3839C14.4271 10.2794 14.0203 10.0696 13.6806 9.77257L3.35536 0.785692C3.20828 0.656363 3.02703 0.572227 2.83331 0.543383C2.63959 0.514539 2.44164 0.542217 2.26326 0.623087C2.08488 0.703956 1.93366 0.834582 1.82769 0.999292C1.72171 1.164 1.66552 1.3558 1.66586 1.55166V8.97896C1.66627 9.12471 1.69779 9.2687 1.75835 9.40128C1.81892 9.53385 1.90713 9.65196 2.01705 9.74768L9.81765 16.5086C10.0033 16.6699 10.2409 16.7587 10.4868 16.7587C10.7327 16.7587 10.9703 16.6699 11.156 16.5086L13.841 14.1692L19.081 9.63431Z" fill="white"/>
</g>
<defs>
<filter id="filter0_d_1_1063" x="0.578355" y="0.532288" width="19.5902" height="18.4014" filterUnits="userSpaceOnUse" color-interpolation-filters="sRGB">
<feFlood flood-opacity="0" result="BackgroundImageFix"/>
<feColorMatrix in="SourceAlpha" type="matrix" values="0 0 0 0 0 0 0 0 0 0 0 0 0 0 0 0 0 0 127 0" result="hardAlpha"/>
<feOffset dy="1.08751"/>
<feGaussianBlur stdDeviation="0.543754"/>
<feColorMatrix type="matrix" values="0 0 0 0 0 0 0 0 0 0 0 0 0 0 0 0 0 0 0.25 0"/>
<feBlend mode="normal" in2="BackgroundImageFix" result="effect1_dropShadow_1_1063"/>
<feBlend mode="normal" in="SourceGraphic" in2="effect1_dropShadow_1_1063" result="shape"/>
</filter>
</defs>
</svg>
