<svg width="11" height="16" viewBox="0 0 11 16" fill="none" xmlns="http://www.w3.org/2000/svg">
<g filter="url(#filter0_d_1_1569)">
<path d="M1.16016 7.25913C2.65741 9.51302 4.93564 11.1333 7.55608 11.8079L9.93411 9.74781C10.1272 9.57941 10.2496 9.3444 10.277 9.08969V1.54901C10.2788 1.37609 10.2357 1.20566 10.1518 1.05442C10.068 0.903181 9.94625 0.776322 9.79862 0.686273C9.77987 0.674179 9.76049 0.663104 9.74056 0.653092L9.66036 0.614375C9.60834 0.592731 9.55476 0.575165 9.50002 0.561836L9.41705 0.545245H9.35346H9.32855C9.23578 0.53857 9.14255 0.546026 9.05203 0.567363H9.00781H8.96629L8.92484 0.581194L8.86124 0.608848C8.84017 0.617316 8.81984 0.627484 8.80042 0.639261L8.72022 0.686273L8.66493 0.724981C8.64557 0.741572 8.62346 0.755396 8.6041 0.774753L8.36626 0.979383L1.16016 7.25913Z" fill="url(#paint0_linear_1_1569)"/>
</g>
<defs>
<filter id="filter0_d_1_1569" x="0.54522" y="0.542877" width="10.3468" height="14.8009" filterUnits="userSpaceOnUse" color-interpolation-filters="sRGB">
<feFlood flood-opacity="0" result="BackgroundImageFix"/>
<feColorMatrix in="SourceAlpha" type="matrix" values="0 0 0 0 0 0 0 0 0 0 0 0 0 0 0 0 0 0 127 0" result="hardAlpha"/>
<feOffset dy="2.92095"/>
<feGaussianBlur stdDeviation="0.307468"/>
<feColorMatrix type="matrix" values="0 0 0 0 0 0 0 0 0 0 0 0 0 0 0 0 0 0 0.25 0"/>
<feBlend mode="normal" in2="BackgroundImageFix" result="effect1_dropShadow_1_1569"/>
<feBlend mode="normal" in="SourceGraphic" in2="effect1_dropShadow_1_1569" result="shape"/>
</filter>
<linearGradient id="paint0_linear_1_1569" x1="48212.5" y1="3831.99" x2="48129.6" y2="3831.99" gradientUnits="userSpaceOnUse">
<stop stop-color="#3AA1E2"/>
<stop offset="0.14" stop-color="white" stop-opacity="0.83"/>
<stop offset="0.44" stop-color="white" stop-opacity="0.48"/>
<stop offset="0.69" stop-color="white" stop-opacity="0.22"/>
<stop offset="0.89" stop-color="white" stop-opacity="0.06"/>
<stop offset="1" stop-color="#F7F7F7" stop-opacity="0"/>
</linearGradient>
</defs>
</svg>
