<svg width="10" height="12" viewBox="0 0 10 12" fill="none" xmlns="http://www.w3.org/2000/svg">
<path d="M0.455566 7.22878C1.92956 9.44301 4.16874 11.0355 6.74408 11.7011L9.0795 9.67567C9.27008 9.50921 9.39134 9.27736 9.41935 9.02588V1.62539C9.42329 1.45405 9.38279 1.28461 9.30179 1.13358C9.2208 0.982541 9.10206 0.855057 8.95716 0.763541L8.90006 0.733634L8.82122 0.695572C8.771 0.6743 8.71918 0.657027 8.66625 0.643914H8.58197H8.52215H8.49497C8.40376 0.635853 8.31185 0.643206 8.22309 0.665665H8.18231L8.13881 0.679259H8.09803L8.0355 0.703728L7.97568 0.733634C7.94787 0.747339 7.92146 0.76373 7.89684 0.782572L7.83974 0.820635L7.78265 0.866853L7.54884 1.07076L0.455566 7.22878Z" fill="url(#paint0_linear_1_1158)"/>
<defs>
<linearGradient id="paint0_linear_1_1158" x1="11.646" y1="3.05419" x2="5.93658" y2="3.05419" gradientUnits="userSpaceOnUse">
<stop offset="0.482245" stop-color="#A2ADB4"/>
<stop offset="0.965253" stop-color="white" stop-opacity="0"/>
</linearGradient>
</defs>
</svg>
