<svg width="295" height="421" viewBox="0 0 295 421" fill="none" xmlns="http://www.w3.org/2000/svg">
<g filter="url(#filter0_d_1_1728)">
<path d="M17.7781 191.141C60.3272 255.192 125.07 301.237 199.538 320.408L267.117 261.865C272.603 257.079 276.083 250.401 276.861 243.162V28.8706C276.913 23.9565 275.687 19.1132 273.304 14.8153C270.921 10.5173 267.462 6.91226 263.267 4.35323C262.734 4.00954 262.183 3.6948 261.617 3.41029L259.337 2.31003C257.859 1.69496 256.337 1.19575 254.781 0.816966L252.423 0.345497H250.616H249.908C247.272 0.155807 244.622 0.367672 242.05 0.974043H240.793H239.613L238.435 1.36709L236.628 2.15296C236.029 2.3936 235.451 2.68257 234.9 3.01724L232.621 4.35323L231.049 5.45324C230.499 5.92473 229.871 6.31758 229.321 6.86765L222.562 12.6828L17.7781 191.141Z" fill="url(#paint0_linear_1_1728)"/>
</g>
<defs>
<filter id="filter0_d_1_1728" x="0.302763" y="0.278198" width="294.035" height="420.613" filterUnits="userSpaceOnUse" color-interpolation-filters="sRGB">
<feFlood flood-opacity="0" result="BackgroundImageFix"/>
<feColorMatrix in="SourceAlpha" type="matrix" values="0 0 0 0 0 0 0 0 0 0 0 0 0 0 0 0 0 0 127 0" result="hardAlpha"/>
<feOffset dy="83.0077"/>
<feGaussianBlur stdDeviation="8.73766"/>
<feColorMatrix type="matrix" values="0 0 0 0 0 0 0 0 0 0 0 0 0 0 0 0 0 0 0.25 0"/>
<feBlend mode="normal" in2="BackgroundImageFix" result="effect1_dropShadow_1_1728"/>
<feBlend mode="normal" in="SourceGraphic" in2="effect1_dropShadow_1_1728" result="shape"/>
</filter>
<linearGradient id="paint0_linear_1_1728" x1="1.37009e+06" y1="108883" x2="1.36773e+06" y2="108883" gradientUnits="userSpaceOnUse">
<stop stop-color="#3AA1E2"/>
<stop offset="0.14" stop-color="white" stop-opacity="0.83"/>
<stop offset="0.44" stop-color="white" stop-opacity="0.48"/>
<stop offset="0.69" stop-color="white" stop-opacity="0.22"/>
<stop offset="0.89" stop-color="white" stop-opacity="0.06"/>
<stop offset="1" stop-color="#F7F7F7" stop-opacity="0"/>
</linearGradient>
</defs>
</svg>
