<svg width="228" height="226" viewBox="0 0 228 226" fill="none" xmlns="http://www.w3.org/2000/svg">
<path d="M28 86C19.5799 86 12.8817 86 8.48581 86C5.76212 86 3.82392 88.6411 4.63506 91.2412L44.2307 218.164C44.757 219.851 46.3188 221 48.0859 221H179.747C181.511 221 183.071 219.855 183.6 218.172L223.467 91.2487C224.284 88.647 222.341 86 219.614 86C213.056 86 205.97 86 198.5 86M28 86C31.1667 51.3334 55.5 5 104.5 5C156.126 5 187.167 43.6667 198.5 86M28 86C67.0877 86 143.281 86 198.5 86" stroke="#141414" stroke-width="8.07692"/>
</svg>
