<svg width="21" height="19" viewBox="0 0 21 19" fill="none" xmlns="http://www.w3.org/2000/svg">
<g filter="url(#filter0_d_1_362)">
<path d="M19.0812 9.63425L16.1999 10.3726C15.7628 10.4845 15.3051 10.4884 14.8662 10.3839C14.4273 10.2793 14.0204 10.0695 13.6808 9.77251L3.35551 0.785631C3.20843 0.656302 3.02718 0.572166 2.83346 0.543322C2.63974 0.514478 2.44179 0.542156 2.26341 0.623025C2.08503 0.703895 1.93381 0.834521 1.82784 0.999231C1.72187 1.16394 1.66568 1.35574 1.66602 1.55159V8.9789C1.66642 9.12465 1.69794 9.26864 1.75851 9.40121C1.81907 9.53379 1.90729 9.6519 2.0172 9.74762L9.8178 16.5085C10.0034 16.6698 10.2411 16.7586 10.487 16.7586C10.7329 16.7586 10.9705 16.6698 11.1561 16.5085L13.8412 14.1692L19.0812 9.63425Z" fill="white"/>
</g>
<defs>
<filter id="filter0_d_1_362" x="0.578508" y="0.532227" width="19.5901" height="18.4013" filterUnits="userSpaceOnUse" color-interpolation-filters="sRGB">
<feFlood flood-opacity="0" result="BackgroundImageFix"/>
<feColorMatrix in="SourceAlpha" type="matrix" values="0 0 0 0 0 0 0 0 0 0 0 0 0 0 0 0 0 0 127 0" result="hardAlpha"/>
<feOffset dy="1.08751"/>
<feGaussianBlur stdDeviation="0.543754"/>
<feColorMatrix type="matrix" values="0 0 0 0 0 0 0 0 0 0 0 0 0 0 0 0 0 0 0.25 0"/>
<feBlend mode="normal" in2="BackgroundImageFix" result="effect1_dropShadow_1_362"/>
<feBlend mode="normal" in="SourceGraphic" in2="effect1_dropShadow_1_362" result="shape"/>
</filter>
</defs>
</svg>
