<svg width="558" height="524" viewBox="0 0 558 524" fill="none" xmlns="http://www.w3.org/2000/svg">
<g filter="url(#filter0_d_1_1727)">
<path d="M526.42 259.646L444.539 280.627C432.118 283.81 419.11 283.92 406.637 280.949C394.164 277.978 382.602 272.015 372.95 263.575L79.5264 8.18521C75.3466 4.50993 70.1959 2.11894 64.6907 1.29926C59.1856 0.47958 53.5602 1.26612 48.4909 3.56428C43.4217 5.86243 39.1243 9.57458 36.1128 14.2553C33.1013 18.9361 31.5045 24.3866 31.5142 29.9524V241.022C31.5256 245.164 32.4214 249.256 34.1425 253.024C35.8637 256.791 38.3706 260.147 41.4942 262.868L263.172 455C268.448 459.583 275.2 462.106 282.188 462.106C289.177 462.106 295.929 459.583 301.204 455L377.509 388.52L526.42 259.646Z" fill="url(#paint0_linear_1_1727)"/>
</g>
<defs>
<filter id="filter0_d_1_1727" x="0.609272" y="0.983948" width="556.716" height="522.932" filterUnits="userSpaceOnUse" color-interpolation-filters="sRGB">
<feFlood flood-opacity="0" result="BackgroundImageFix"/>
<feColorMatrix in="SourceAlpha" type="matrix" values="0 0 0 0 0 0 0 0 0 0 0 0 0 0 0 0 0 0 127 0" result="hardAlpha"/>
<feOffset dy="30.9049"/>
<feGaussianBlur stdDeviation="15.4524"/>
<feColorMatrix type="matrix" values="0 0 0 0 0 0 0 0 0 0 0 0 0 0 0 0 0 0 0.25 0"/>
<feBlend mode="normal" in2="BackgroundImageFix" result="effect1_dropShadow_1_1727"/>
<feBlend mode="normal" in="SourceGraphic" in2="effect1_dropShadow_1_1727" result="shape"/>
</filter>
<linearGradient id="paint0_linear_1_1727" x1="35.3903" y1="22.002" x2="491.438" y2="458.883" gradientUnits="userSpaceOnUse">
<stop stop-color="#3C83E6"/>
<stop offset="1" stop-color="#3FD9D2"/>
</linearGradient>
</defs>
</svg>
