<svg width="255" height="315" viewBox="0 0 255 315" fill="none" xmlns="http://www.w3.org/2000/svg">
<path d="M0.184082 187.282C42.0722 250.206 105.705 295.462 178.892 314.378L245.26 256.818C250.676 252.088 254.122 245.499 254.918 238.352V28.0444C255.03 23.1753 253.879 18.3602 251.577 14.068C249.275 9.77587 245.901 6.15302 241.783 3.55231L240.16 2.70242L237.92 1.62076C236.493 1.01626 235.02 0.525389 233.516 0.152755H231.121H229.421H228.648C226.057 -0.0763314 223.445 0.132636 220.922 0.770867H219.763L218.527 1.15717H217.368L215.591 1.85253L213.891 2.70242C213.101 3.09188 212.351 3.55767 211.651 4.09314L210.028 5.17481L208.406 6.48826L201.761 12.2829L0.184082 187.282Z" fill="url(#paint0_linear_1_1737)"/>
<defs>
<linearGradient id="paint0_linear_1_1737" x1="287.444" y1="81.1881" x2="67.2472" y2="135.272" gradientUnits="userSpaceOnUse">
<stop stop-color="#004F92"/>
<stop offset="1" stop-color="#40D7D3" stop-opacity="0.13"/>
</linearGradient>
</defs>
</svg>
