<svg width="8" height="32" viewBox="0 0 8 32" fill="none" xmlns="http://www.w3.org/2000/svg">
<path d="M0.972049 30.8004C0.781733 30.6101 0.674805 30.3519 0.674805 30.0828V22.9005H7.95828V30.0828C7.95828 30.3519 7.85135 30.6101 7.66103 30.8004C7.47072 30.9907 7.21262 31.0976 6.94348 31.0976H1.68961C1.42046 31.0976 1.16237 30.9907 0.972049 30.8004Z" fill="url(#paint0_linear_1_277)"/>
<path d="M7.86849 5.73238C7.92811 5.8645 7.95871 6.00786 7.95828 6.15281V17.2123H0.674805V1.54877C0.674756 1.35368 0.730937 1.16272 0.836625 0.998736C0.942314 0.834757 1.09302 0.704715 1.27071 0.624185C1.4484 0.543654 1.64556 0.516051 1.83854 0.544675C2.03151 0.573299 2.2121 0.656933 2.35876 0.785575L7.61263 5.38686C7.7216 5.48244 7.80887 5.60026 7.86849 5.73238Z" fill="url(#paint1_linear_1_277)"/>
<defs>
<linearGradient id="paint0_linear_1_277" x1="4.27466" y1="5.94507" x2="4.27466" y2="36.9194" gradientUnits="userSpaceOnUse">
<stop offset="0.203438" stop-color="white"/>
<stop offset="0.708333" stop-color="#F0F0F0"/>
<stop offset="0.916667" stop-color="#E1E1E1"/>
</linearGradient>
<linearGradient id="paint1_linear_1_277" x1="4.27466" y1="5.94507" x2="4.27466" y2="36.9194" gradientUnits="userSpaceOnUse">
<stop offset="0.203438" stop-color="white"/>
<stop offset="0.708333" stop-color="#F0F0F0"/>
<stop offset="0.916667" stop-color="#E1E1E1"/>
</linearGradient>
</defs>
</svg>
