<svg width="226" height="944" viewBox="0 0 226 944" fill="none" xmlns="http://www.w3.org/2000/svg">
<path d="M222.722 924.342C224.295 920.544 225.104 916.473 225.104 912.363V693.191H0.355469V912.363C0.355453 916.481 1.16759 920.558 2.74604 924.362C4.32449 928.165 6.63754 931.62 9.55333 934.527C12.4691 937.435 15.9305 939.739 19.7382 941.307C23.5459 942.875 27.6252 943.677 31.7431 943.665H193.802C197.913 943.665 201.984 942.856 205.782 941.283C209.58 939.71 213.031 937.404 215.938 934.497C218.844 931.59 221.149 928.14 222.722 924.342Z" fill="url(#paint0_linear_1_1121)"/>
<path d="M3.17292 161.251C1.31931 165.326 0.358345 169.75 0.355469 174.227V512.994H225.104V32.2122C225.106 26.1946 223.373 20.3041 220.113 15.246C216.853 10.188 212.204 6.17676 206.723 3.69275C201.242 1.20875 195.163 0.357312 189.21 1.24023C183.258 2.12315 177.686 4.70291 173.162 8.67093L11.1026 150.601C7.72999 153.545 5.02654 157.176 3.17292 161.251Z" fill="url(#paint1_linear_1_1121)"/>
<defs>
<linearGradient id="paint0_linear_1_1121" x1="112.777" y1="56.6155" x2="112.777" y2="911.033" gradientUnits="userSpaceOnUse">
<stop offset="0.37" stop-color="#3C83E6"/>
<stop offset="1" stop-color="#3FD9D2"/>
</linearGradient>
<linearGradient id="paint1_linear_1_1121" x1="112.777" y1="56.6155" x2="112.777" y2="911.033" gradientUnits="userSpaceOnUse">
<stop offset="0.37" stop-color="#3C83E6"/>
<stop offset="1" stop-color="#3FD9D2"/>
</linearGradient>
</defs>
</svg>
