<svg width="10" height="12" viewBox="0 0 10 12" fill="none" xmlns="http://www.w3.org/2000/svg">
<path d="M9.49728 7.22849C8.02281 9.44345 5.7825 11.0361 3.20605 11.7009L0.870622 9.67538C0.678972 9.50977 0.557477 9.27748 0.530776 9.0256V1.6251C0.52986 1.45457 0.57291 1.28667 0.655773 1.13761C0.738635 0.988556 0.858514 0.863369 1.00384 0.77413L1.05822 0.744223L1.13978 0.70616C1.18985 0.684493 1.2417 0.66721 1.29475 0.654504H1.37631H1.43885H1.46331C1.55452 0.646443 1.64643 0.653795 1.73519 0.676254H1.77869L1.81947 0.689849H1.86297L1.92279 0.714317L1.98532 0.744223C2.01278 0.758552 2.03913 0.77491 2.06416 0.793161L2.11854 0.831225L2.17835 0.877443L2.41217 1.08135L9.49728 7.22849Z" fill="url(#paint0_linear_1_1577)"/>
<defs>
<linearGradient id="paint0_linear_1_1577" x1="0.606902" y1="6.15729" x2="3.08098" y2="6.15729" gradientUnits="userSpaceOnUse">
<stop stop-color="#A2ADB4"/>
<stop offset="0.14" stop-color="#A2ADB4" stop-opacity="0.83"/>
<stop offset="0.44" stop-color="#A2ADB4" stop-opacity="0.48"/>
<stop offset="0.69" stop-color="#A2ADB4" stop-opacity="0.22"/>
<stop offset="0.89" stop-color="#A2ADB4" stop-opacity="0.06"/>
<stop offset="1" stop-color="#A2ADB4" stop-opacity="0"/>
</linearGradient>
</defs>
</svg>
