<svg width="208" height="869" viewBox="0 0 208 869" fill="none" xmlns="http://www.w3.org/2000/svg">
<path d="M205.665 850.786C207.114 847.287 207.86 843.537 207.86 839.75V637.827H0.798584V839.75C0.79857 843.544 1.54679 847.3 3.00101 850.804C4.45524 854.308 6.58625 857.491 9.27257 860.17C11.9589 862.849 15.1479 864.972 18.6559 866.416C22.1639 867.861 25.9222 868.599 29.716 868.589H179.021C182.808 868.589 186.559 867.843 190.058 866.394C193.557 864.944 196.736 862.82 199.414 860.142C202.092 857.464 204.216 854.285 205.665 850.786Z" fill="url(#paint0_linear_1_1725)"/>
<path d="M3.39431 147.751C1.68657 151.505 0.801234 155.581 0.798584 159.706V471.812H207.86V28.8676C207.861 23.3236 206.264 17.8967 203.261 13.2367C200.258 8.57669 195.975 4.88115 190.925 2.59264C185.875 0.304127 180.275 -0.480298 174.791 0.333135C169.307 1.14657 164.173 3.5233 160.005 7.17904L10.6999 137.939C7.59273 140.651 5.10204 143.997 3.39431 147.751Z" fill="url(#paint1_linear_1_1725)"/>
<defs>
<linearGradient id="paint0_linear_1_1725" x1="104.372" y1="51.3504" x2="104.372" y2="838.525" gradientUnits="userSpaceOnUse">
<stop offset="0.37" stop-color="#3C83E6"/>
<stop offset="1" stop-color="#3FD9D2"/>
</linearGradient>
<linearGradient id="paint1_linear_1_1725" x1="104.372" y1="51.3504" x2="104.372" y2="838.525" gradientUnits="userSpaceOnUse">
<stop offset="0.37" stop-color="#3C83E6"/>
<stop offset="1" stop-color="#3FD9D2"/>
</linearGradient>
</defs>
</svg>
