<svg width="277" height="342" viewBox="0 0 277 342" fill="none" xmlns="http://www.w3.org/2000/svg">
<path d="M0.0146484 203.415C45.4809 271.715 114.55 320.836 193.988 341.368L266.026 278.891C271.904 273.757 275.644 266.605 276.508 258.848V30.5751C276.63 25.29 275.381 20.0636 272.882 15.4048C270.384 10.746 266.721 6.81365 262.252 3.99078L260.491 3.06829L258.059 1.89423C256.51 1.23809 254.911 0.705291 253.278 0.300825H250.679H248.834H247.995C245.182 0.0521692 242.347 0.278987 239.609 0.971738H238.351L237.009 1.39104H235.751L233.822 2.1458L231.978 3.06829C231.12 3.49102 230.305 3.9966 229.546 4.57782L227.784 5.75188L226.023 7.17752L218.811 13.4672L0.0146484 203.415Z" fill="url(#paint0_linear_1_1133)"/>
<defs>
<linearGradient id="paint0_linear_1_1133" x1="311.814" y1="88.2585" x2="72.8065" y2="146.962" gradientUnits="userSpaceOnUse">
<stop stop-color="#004F92"/>
<stop offset="1" stop-color="#40D7D3" stop-opacity="0.13"/>
</linearGradient>
</defs>
</svg>
