<svg width="9" height="32" viewBox="0 0 9 32" fill="none" xmlns="http://www.w3.org/2000/svg">
<path d="M8.20022 30.4711C8.25122 30.348 8.27745 30.2161 8.27745 30.0828V22.9774H0.991211V30.0828C0.991211 30.2163 1.01754 30.3485 1.06871 30.4718C1.11988 30.5951 1.19487 30.7071 1.2894 30.8014C1.38393 30.8956 1.49615 30.9703 1.61959 31.0212C1.74303 31.072 1.87528 31.098 2.00878 31.0976H7.26265C7.39592 31.0976 7.52791 31.0714 7.65103 31.0204C7.77416 30.9694 7.88604 30.8946 7.98028 30.8004C8.07451 30.7061 8.14922 30.5943 8.20022 30.4711Z" fill="url(#paint0_linear_1_1499)"/>
<path d="M1.08255 5.73214C1.02246 5.86425 0.991304 6.00768 0.991211 6.15281V17.1355H8.27745V1.54877C8.2775 1.35368 8.22132 1.16272 8.11563 0.998736C8.00994 0.834757 7.85924 0.704715 7.68155 0.624185C7.50385 0.543654 7.30677 0.516051 7.11379 0.544675C6.92081 0.573299 6.74016 0.656933 6.59349 0.785575L1.33963 5.38686C1.23029 5.4823 1.14264 5.60003 1.08255 5.73214Z" fill="url(#paint1_linear_1_1499)"/>
<defs>
<linearGradient id="paint0_linear_1_1499" x1="4.63433" y1="0.533691" x2="4.63433" y2="31.0976" gradientUnits="userSpaceOnUse">
<stop offset="0.322917" stop-color="white"/>
<stop offset="0.875" stop-color="white"/>
</linearGradient>
<linearGradient id="paint1_linear_1_1499" x1="4.63433" y1="0.533691" x2="4.63433" y2="31.0976" gradientUnits="userSpaceOnUse">
<stop offset="0.322917" stop-color="white"/>
<stop offset="0.875" stop-color="white"/>
</linearGradient>
</defs>
</svg>
