<svg width="10" height="12" viewBox="0 0 10 12" fill="none" xmlns="http://www.w3.org/2000/svg">
<path d="M0.455566 7.22865C1.92956 9.44288 4.16874 11.0354 6.74408 11.701L9.0795 9.67555C9.27008 9.50909 9.39134 9.27724 9.41935 9.02576V1.62527C9.42329 1.45393 9.38279 1.28449 9.30179 1.13345C9.2208 0.982419 9.10206 0.854935 8.95716 0.763419L8.90006 0.733512L8.82122 0.69545C8.771 0.674178 8.71918 0.656905 8.66625 0.643792V0.643792H8.58197H8.52215H8.49497C8.40376 0.635731 8.31185 0.643084 8.22309 0.665543H8.18231L8.13881 0.679137H8.09803L8.0355 0.703606L7.97568 0.733512C7.94787 0.747217 7.92146 0.763607 7.89684 0.78245L7.83974 0.820513L7.78265 0.866731L7.54884 1.07064L0.455566 7.22865Z" fill="url(#paint0_linear_1_288)"/>
<defs>
<linearGradient id="paint0_linear_1_288" x1="11.646" y1="3.05406" x2="5.93658" y2="3.05406" gradientUnits="userSpaceOnUse">
<stop offset="0.482245" stop-color="#A2ADB4"/>
<stop offset="0.965253" stop-color="white" stop-opacity="0"/>
</linearGradient>
</defs>
</svg>
